<?xml version="1.0" standalone="no"?>
<!DOCTYPE svg PUBLIC "-//W3C//DTD SVG 20010904//EN"
 "http://www.w3.org/TR/2001/REC-SVG-20010904/DTD/svg10.dtd">
<svg version="1.0" xmlns="http://www.w3.org/2000/svg"
 width="500.000000pt" height="500.000000pt" viewBox="0 0 500.000000 500.000000"
 preserveAspectRatio="xMidYMid meet">
<metadata>
Created by potrace 1.14, written by Peter Selinger 2001-2017
</metadata>
<g transform="translate(0.000000,500.000000) scale(0.100000,-0.100000)"
fill="#000000" stroke="none">
<path d="M2301 4981 c-7 -5 -31 -6 -53 -4 -26 3 -38 1 -34 -5 4 -6 -2 -8 -14
-5 -20 5 -88 -5 -233 -34 -68 -14 -76 -18 -65 -32 8 -10 4 -9 -10 3 -19 17
-26 15 -24 -5 1 -3 -5 -6 -13 -6 -8 0 -11 5 -8 11 4 7 1 7 -8 -1 -8 -6 -27
-14 -44 -17 -48 -8 -228 -75 -236 -87 -3 -6 -9 -10 -13 -10 -25 4 -36 0 -30
-11 4 -7 3 -8 -4 -4 -11 7 -132 -42 -132 -54 0 -4 -6 -7 -14 -7 -20 0 -87 -43
-81 -53 3 -4 -3 -6 -12 -4 -16 4 -217 -120 -263 -161 -8 -8 -25 -23 -37 -35
-13 -11 -23 -17 -23 -14 0 4 -7 1 -15 -6 -8 -7 -12 -16 -9 -21 3 -5 0 -8 -8
-7 -8 2 -13 -6 -12 -19 1 -13 -3 -20 -7 -17 -5 3 -7 10 -4 15 14 22 -12 6 -53
-33 -119 -115 -167 -164 -164 -171 1 -4 -4 -6 -10 -5 -7 2 -12 -5 -12 -14 1
-9 -4 -14 -11 -12 -14 6 -28 -22 -20 -37 4 -5 0 -7 -7 -4 -16 6 -102 -101 -93
-115 3 -5 0 -7 -8 -4 -8 3 -17 -1 -20 -9 -3 -7 -23 -38 -46 -68 -22 -30 -40
-58 -40 -63 1 -5 -3 -12 -8 -15 -8 -5 -29 -35 -58 -82 -34 -54 -153 -299 -142
-293 6 4 4 -2 -6 -14 -11 -11 -16 -25 -13 -30 3 -6 -1 -13 -10 -16 -10 -4 -14
-14 -11 -26 3 -11 2 -20 -2 -20 -7 0 -44 -110 -85 -250 -21 -73 -47 -220 -40
-231 3 -5 1 -9 -4 -9 -9 0 -12 -22 -15 -127 -1 -35 -4 -63 -7 -63 -3 0 -5 -64
-4 -142 3 -227 3 -230 15 -222 8 5 8 1 0 -14 -13 -24 -14 -35 -3 -29 4 3 7
-16 7 -41 1 -44 11 -137 16 -137 1 0 2 -12 3 -26 1 -15 8 -35 16 -45 8 -10 10
-15 4 -11 -7 4 -9 -4 -6 -23 2 -17 8 -28 12 -25 4 2 5 -7 2 -22 -4 -20 -2 -24
9 -18 11 6 11 5 3 -4 -8 -9 -3 -39 19 -116 17 -57 33 -102 36 -100 3 2 7 -7 7
-20 3 -35 56 -165 65 -159 5 3 6 -2 3 -10 -3 -9 3 -32 15 -51 12 -20 21 -40
21 -45 0 -8 64 -129 117 -220 37 -65 74 -115 81 -110 4 3 6 9 4 13 -1 5 2 6 8
2 8 -5 8 -11 0 -20 -12 -15 -4 -39 10 -30 4 3 7 -1 6 -8 -1 -15 34 -65 79
-112 17 -18 32 -36 35 -41 3 -5 8 -8 12 -7 5 2 7 -3 5 -10 -1 -6 4 -11 11 -9
8 1 11 -2 7 -8 -3 -5 19 -35 49 -67 31 -31 56 -60 56 -65 0 -4 3 -8 8 -8 4 0
32 -24 63 -53 100 -93 127 -117 133 -117 3 0 14 -8 24 -18 38 -35 60 -50 66
-45 3 4 6 1 6 -6 0 -7 5 -9 10 -6 6 3 10 0 10 -7 0 -11 74 -61 90 -62 3 0 11
-6 18 -13 8 -7 18 -11 23 -7 5 3 8 0 7 -8 -2 -7 5 -12 14 -12 10 1 16 -1 14
-5 -3 -4 16 -18 42 -32 26 -13 49 -26 52 -29 15 -15 71 -40 79 -35 6 3 14 -2
19 -11 5 -9 13 -16 18 -15 5 0 33 -12 61 -26 29 -14 60 -23 68 -19 9 3 13 2
10 -4 -6 -10 5 -17 40 -22 11 -2 22 -6 25 -10 3 -3 59 -23 125 -43 105 -32
160 -46 240 -61 11 -2 27 -5 35 -7 68 -17 133 -26 245 -33 50 -3 98 -7 107 -8
9 -2 19 1 22 8 2 6 5 7 5 1 1 -11 212 -11 331 0 41 4 83 7 93 7 9 0 17 6 17
16 0 14 2 14 9 3 7 -11 20 -11 72 -2 107 19 170 36 164 43 -4 4 2 4 12 2 11
-3 49 4 84 16 35 12 71 23 79 25 49 14 90 31 90 38 0 5 4 6 9 3 13 -8 73 19
64 29 -5 4 -3 5 4 1 25 -14 352 150 335 169 -4 5 -2 5 4 2 12 -7 143 73 177
107 9 10 17 15 17 12 0 -3 9 2 19 11 11 9 18 20 15 25 -3 4 1 5 9 2 9 -3 24 7
37 23 12 15 24 27 26 25 10 -6 83 62 77 71 -3 6 -1 7 4 4 19 -12 290 273 279
292 -3 5 4 11 15 14 15 4 20 11 15 22 -3 9 -2 14 3 11 13 -9 44 31 35 46 -4 7
-4 10 1 6 12 -11 35 19 29 39 -4 13 -3 15 4 4 7 -9 12 -10 16 -2 4 6 4 11 1
11 -4 0 0 7 7 15 31 34 36 43 31 49 -4 3 -1 6 6 6 8 0 11 6 7 16 -3 8 -2 12 4
9 12 -8 33 32 24 48 -4 6 -4 9 1 5 4 -4 14 0 21 10 17 21 18 36 2 26 -7 -4 -8
-3 -4 5 4 6 11 9 16 6 5 -3 15 8 24 25 9 19 10 28 3 24 -7 -4 -3 2 9 13 27 27
117 230 108 245 -4 7 -3 8 4 4 7 -4 12 -1 12 8 0 8 7 31 15 51 8 19 22 51 30
71 11 26 12 33 3 28 -10 -6 -10 -4 -2 7 12 15 32 72 39 111 3 13 11 45 19 71
10 34 11 47 3 47 -9 0 -9 2 0 8 6 4 13 25 15 47 2 22 7 45 10 50 10 17 13 80
4 94 -6 10 -5 12 2 7 8 -5 12 5 13 31 0 21 2 47 5 58 7 33 8 306 1 373 -3 34
-9 95 -13 135 -4 39 -9 74 -13 77 -3 3 -7 25 -8 48 -1 24 -8 51 -15 60 -7 9
-8 13 -2 10 7 -5 7 6 0 37 -6 24 -14 41 -20 38 -5 -4 -6 -1 -2 6 11 17 -25
152 -37 144 -6 -3 -7 -1 -3 6 8 12 -2 48 -40 151 -40 104 -56 140 -66 140 -4
0 -7 3 -7 8 4 24 -2 42 -13 36 -7 -4 -8 -3 -4 4 6 10 -30 85 -92 192 -11 19
-25 34 -30 33 -6 -2 -9 3 -6 10 5 15 -116 199 -145 219 -10 7 -18 17 -19 21 0
18 -64 87 -74 81 -7 -5 -8 -2 -4 5 8 13 -108 143 -119 133 -3 -3 -5 2 -5 11 0
10 -3 17 -8 17 -4 0 -31 23 -60 51 -28 27 -52 47 -52 42 0 -4 -5 0 -11 10 -6
9 -15 14 -21 11 -6 -4 -8 -3 -5 3 7 11 -172 153 -192 153 -6 0 -11 5 -11 10 0
6 -7 10 -15 10 -8 0 -15 3 -15 8 0 17 -248 154 -264 145 -6 -3 -8 -3 -4 2 9 9
-10 20 -107 60 -38 16 -75 33 -82 38 -7 5 -17 6 -23 2 -5 -3 -10 -1 -10 5 0 7
-7 10 -15 6 -8 -3 -15 -2 -15 2 0 7 -80 35 -105 36 -5 1 -9 -5 -7 -12 1 -8 -2
-11 -7 -7 -6 3 -8 11 -5 19 5 12 -89 43 -156 51 -14 2 -26 4 -27 5 -2 2 -11 3
-20 4 -10 1 -24 5 -31 9 -7 5 -37 10 -66 11 -30 2 -59 6 -65 10 -5 4 -45 9
-88 12 -43 3 -82 5 -88 6 -5 0 -19 -3 -30 -7 -15 -5 -17 -4 -6 3 10 7 -33 10
-142 10 -99 0 -154 -4 -151 -10 4 -6 -1 -6 -13 0 -10 6 -25 7 -32 3z m165 -26
c-1 -8 -5 -17 -8 -21 -5 -4 -4 16 1 34 3 9 9 -1 7 -13z m-279 -10 c0 -8 -4
-12 -9 -9 -5 3 -6 10 -3 15 9 13 12 11 12 -6z m320 -2 c-4 -3 -1 -13 6 -22 11
-14 10 -14 -5 -2 -16 12 -16 31 -1 31 4 0 3 -3 0 -7z m98 -2 c-9 -8 -36 -10
-30 -2 2 4 11 8 20 8 8 0 13 -3 10 -6z m138 -16 c-7 -21 -12 -19 -10 4 0 11 5
18 9 15 4 -3 5 -11 1 -19z m103 13 c3 -4 -1 -5 -10 -4 -8 1 -18 5 -22 8 -3 4
1 5 10 4 8 -1 18 -5 22 -8z m-596 -2 c0 -2 -8 -10 -17 -17 -16 -13 -17 -12 -4
4 13 16 21 21 21 13z m678 -21 c-3 -3 -9 2 -12 12 -6 14 -5 15 5 6 7 -7 10
-15 7 -18z m-233 6 c-9 -8 -36 -10 -30 -2 2 4 11 8 20 8 8 0 13 -3 10 -6z
m-665 -21 c0 -5 -2 -10 -4 -10 -3 0 -8 5 -11 10 -3 6 -1 10 4 10 6 0 11 -4 11
-10z m95 1 c-9 -8 -36 -10 -30 -2 2 4 11 8 20 8 8 0 13 -3 10 -6z m61 -17 c1
-9 0 -13 -4 -10 -3 4 -7 14 -8 22 -1 9 0 13 4 10 3 -4 7 -14 8 -22z m79 16 c3
-5 1 -10 -4 -10 -6 0 -11 5 -11 10 0 6 2 10 4 10 3 0 8 -4 11 -10z m56 -7 c12
-16 12 -17 -2 -6 -9 7 -20 9 -24 5 -5 -4 -5 -1 -1 6 9 16 11 15 27 -5z m79 11
c0 -8 -19 -13 -24 -6 -3 5 1 9 9 9 8 0 15 -2 15 -3z m66 -20 c1 -9 0 -13 -4
-10 -3 4 -7 14 -8 22 -1 9 0 13 4 10 3 -4 7 -14 8 -22z m139 17 c-9 -8 -36
-10 -30 -2 2 4 11 8 20 8 8 0 13 -3 10 -6z m481 -3 c3 -4 -1 -5 -10 -4 -8 1
-18 5 -22 8 -3 4 1 5 10 4 8 -1 18 -5 22 -8z m-300 -23 c-1 -8 -5 -17 -8 -21
-5 -4 -4 16 1 34 3 9 9 -1 7 -13z m40 0 c-1 -8 -5 -17 -8 -21 -5 -4 -4 16 1
34 3 9 9 -1 7 -13z m334 9 c0 -8 -19 -13 -24 -6 -3 5 1 9 9 9 8 0 15 -2 15 -3z
m-775 -13 c3 -5 2 -12 -3 -15 -5 -3 -9 1 -9 9 0 17 3 19 12 6z m-439 -13 c3
-4 -1 -5 -10 -4 -8 1 -18 5 -22 8 -3 4 1 5 10 4 8 -1 18 -5 22 -8z m81 -3 c0
-8 -4 -12 -9 -9 -5 3 -6 10 -3 15 9 13 12 11 12 -6z m478 5 c-3 -6 2 -13 12
-16 55 -18 73 -28 73 -40 0 -8 4 -14 8 -14 5 0 9 -17 9 -37 0 -21 3 -60 7 -88
9 -75 16 -151 22 -245 3 -46 7 -87 9 -91 9 -13 -43 -27 -95 -25 -30 1 -63 -2
-74 -7 -13 -6 -16 -6 -12 2 6 10 -5 15 -26 12 -4 0 -5 8 -3 19 2 10 6 45 10
77 3 32 10 85 15 118 5 33 11 86 14 118 3 32 8 62 10 66 3 4 6 27 7 52 1 24 6
52 11 61 5 10 4 19 -2 23 -10 6 -5 25 6 25 3 0 2 -5 -1 -10z m45 4 c0 -8 -19
-13 -24 -6 -3 5 1 9 9 9 8 0 15 -2 15 -3z m116 -6 c3 -4 -1 -5 -10 -4 -8 1
-18 5 -22 8 -3 4 1 5 10 4 8 -1 18 -5 22 -8z m54 6 c0 -8 -19 -13 -24 -6 -3 5
1 9 9 9 8 0 15 -2 15 -3z m184 -2 c3 -5 -1 -9 -9 -9 -8 0 -12 4 -9 9 3 4 7 8
9 8 2 0 6 -4 9 -8z m63 -12 c-2 -11 -6 -22 -10 -25 -4 -3 -5 -2 -2 2 3 3 -2
14 -10 23 -13 14 -12 16 5 17 14 1 19 -4 17 -17z m93 0 c14 0 32 6 39 13 10
10 12 9 9 -2 -4 -17 32 -23 52 -8 12 9 13 9 2 -3 -10 -12 -5 -17 29 -30 23 -8
49 -26 58 -39 l16 -25 -28 18 c-18 13 -27 14 -27 6 0 -10 -3 -10 -14 -1 -8 6
-27 13 -44 14 -16 1 -28 5 -26 8 3 6 -28 15 -81 25 -5 1 -13 3 -17 4 -14 4
-28 7 -40 9 -6 0 -3 7 8 15 12 9 23 11 29 5 5 -5 21 -9 35 -9z m-717 -34 c-75
-43 -269 -210 -265 -227 2 -8 0 -11 -4 -7 -10 11 -35 -12 -27 -25 3 -5 1 -7
-4 -4 -11 7 -45 -28 -113 -112 -19 -24 -41 -49 -47 -56 -7 -8 -13 -16 -13 -19
0 -4 -12 -20 -27 -36 -35 -40 -77 -51 -127 -33 -48 16 -59 16 -50 1 4 -7 -5 0
-20 16 -15 15 -25 35 -22 42 3 8 0 14 -7 14 -8 0 -9 2 -1 8 12 7 29 52 26 65
-1 4 2 7 7 7 5 0 12 12 16 27 7 28 41 82 60 95 5 4 6 8 1 8 -5 0 4 10 20 22
16 12 31 25 34 28 3 4 20 15 38 25 17 11 32 23 32 28 0 4 5 5 10 2 6 -4 16 -2
23 3 7 6 31 16 54 22 23 7 40 16 38 21 -3 4 5 5 17 1 13 -3 19 -1 15 5 -4 6
-1 11 6 10 34 -1 48 4 41 15 -4 6 -3 8 3 5 5 -3 28 -1 52 5 31 8 41 15 36 26
-4 11 -2 12 8 4 10 -8 30 -6 78 8 35 11 72 20 83 20 16 0 17 2 5 17 -12 14
-10 14 14 -2 27 -17 27 -19 10 -29z m-118 24 c3 -5 -4 -7 -16 -5 -19 4 -80
-14 -119 -34 -9 -5 -30 -12 -48 -16 -19 -4 -29 -11 -26 -17 4 -6 2 -8 -4 -4
-11 7 -62 -12 -73 -27 -3 -5 -9 -8 -13 -8 -26 4 -36 0 -30 -11 4 -7 4 -10 -1
-6 -4 4 -15 3 -24 -1 -9 -5 -31 -11 -50 -14 l-33 -6 26 28 c14 15 23 31 19 36
-5 4 -3 5 3 2 11 -6 45 27 38 37 -2 3 -1 4 3 1 3 -3 16 1 29 9 12 8 46 18 75
22 30 4 60 10 66 13 19 10 172 11 178 1z m251 -44 c0 -30 -4 -52 -8 -49 -5 2
-9 -11 -10 -29 -2 -37 -5 -71 -9 -95 -1 -5 -5 -18 -10 -30 -5 -13 -5 -23 0
-23 4 0 8 -7 8 -15 0 -8 -4 -12 -9 -9 -4 3 -9 -13 -10 -35 -3 -82 -5 -98 -12
-110 -4 -6 -3 -11 3 -11 6 0 5 -15 -4 -39 -7 -22 -12 -41 -9 -44 2 -2 -31 -4
-73 -4 -224 -1 -254 -3 -247 -15 5 -7 3 -8 -7 -2 -19 11 -49 16 -49 6 0 -4
-30 -7 -68 -7 -37 1 -83 -2 -102 -6 -32 -7 -33 -7 -16 7 11 8 16 14 12 14 -4
0 9 20 30 45 20 25 34 45 31 45 -2 0 12 17 32 38 61 64 80 90 73 98 -4 4 -2 4
4 1 13 -7 110 93 106 108 -2 6 0 7 3 3 7 -6 84 48 110 77 6 6 18 14 28 18 11
4 15 12 11 18 -4 8 -3 9 4 5 14 -9 55 18 44 28 -4 4 -2 7 3 6 22 -5 36 1 29
12 -4 6 -3 8 4 4 6 -3 18 1 26 10 9 8 16 13 16 9 0 -3 12 1 28 9 15 8 30 15
33 16 4 0 6 -24 5 -54z m272 8 c48 -15 110 -37 139 -50 36 -16 53 -19 57 -11
2 7 5 6 5 -3 1 -17 58 -43 73 -34 5 3 7 1 6 -4 -2 -6 0 -9 3 -8 4 0 15 -6 25
-14 34 -27 65 -41 76 -34 6 4 8 3 5 -2 -5 -8 75 -61 96 -63 4 -1 15 -8 25 -17
30 -26 153 -114 160 -114 4 0 14 -9 22 -20 8 -11 23 -20 34 -20 11 0 16 -3 13
-7 -4 -3 2 -12 13 -20 23 -16 26 -29 8 -31 -31 -2 -210 -57 -206 -63 2 -2 -1
-1 -6 3 -5 4 -24 1 -43 -7 -19 -8 -31 -10 -28 -6 3 5 -3 7 -13 5 -9 -3 -37 -6
-62 -7 -34 -2 -44 -6 -42 -17 2 -8 0 -11 -5 -7 -4 5 -8 14 -8 20 0 7 -12 13
-27 15 -21 3 -36 17 -65 65 -52 87 -133 207 -139 207 -3 0 -2 -6 2 -12 4 -8 3
-9 -2 -5 -5 5 -9 16 -9 25 0 9 -6 16 -13 14 -8 -1 -11 2 -8 7 4 5 -4 21 -16
34 -13 14 -42 45 -64 70 -23 25 -45 43 -48 40 -3 -4 -6 1 -6 9 0 15 -26 33
-42 30 -5 -1 -7 4 -5 11 1 6 -4 11 -11 9 -8 -1 -11 2 -8 7 3 5 -1 12 -10 15
-21 8 -8 26 16 21 11 -2 60 -16 108 -31z m137 21 c22 -3 67 -9 99 -15 33 -5
62 -7 64 -5 3 3 10 1 16 -3 6 -5 38 -17 71 -26 33 -10 70 -22 83 -27 13 -5 27
-7 32 -4 4 3 13 -2 20 -10 11 -13 14 -13 26 2 12 15 13 15 8 2 -4 -12 7 -22
37 -37 23 -12 47 -18 52 -15 6 3 7 1 4 -4 -4 -6 9 -28 29 -49 19 -22 47 -60
62 -86 15 -27 30 -48 35 -48 4 0 7 -5 7 -10 0 -6 9 -24 21 -39 23 -31 22 -66
-1 -66 -8 0 -40 20 -71 45 -100 81 -112 89 -122 83 -6 -3 -7 -1 -3 5 7 11 -6
17 -27 13 -5 -1 -6 3 -2 9 6 9 -8 14 -28 11 -5 -1 -6 2 -3 7 6 10 -161 113
-186 115 -9 1 -15 3 -13 6 13 13 -228 116 -246 105 -8 -4 -9 -3 -5 5 5 7 -4
14 -26 18 -18 4 -36 6 -40 5 -5 -1 -8 4 -8 12 0 15 7 15 115 1z m-1152 -12 c9
0 17 3 17 6 0 3 17 6 38 7 20 1 29 -1 19 -3 -9 -3 -14 -9 -11 -15 4 -6 3 -8
-3 -5 -15 10 -124 -24 -116 -36 4 -6 1 -7 -6 -2 -14 8 -215 -60 -235 -81 -8
-7 -16 -11 -18 -8 -9 9 -68 -18 -61 -29 4 -6 1 -7 -6 -2 -10 6 -10 10 1 20 20
19 138 81 181 95 20 6 37 16 37 20 0 5 6 7 13 5 22 -8 112 21 109 35 -2 10 0
11 10 3 7 -6 21 -10 31 -10z m1572 -3 c-7 -11 19 -20 45 -15 11 2 20 -1 20 -7
0 -6 9 -8 20 -5 11 3 18 2 15 -3 -6 -10 54 -22 68 -13 6 3 7 1 3 -5 -4 -7 -1
-12 9 -12 8 0 38 -11 65 -25 28 -14 50 -23 50 -20 0 5 15 -7 66 -52 11 -10 33
-36 49 -57 25 -33 27 -38 9 -28 -12 6 -25 8 -29 4 -5 -4 -5 -2 -2 4 8 14 -46
39 -67 31 -10 -4 -13 -1 -9 9 3 8 -1 14 -9 14 -8 0 -29 7 -47 16 -17 9 -38 13
-46 10 -8 -3 -14 0 -12 6 1 7 -2 12 -8 13 -5 0 -25 9 -44 19 -23 12 -31 14
-26 4 3 -7 0 -5 -9 6 -8 10 -20 15 -26 11 -6 -3 -9 -1 -8 5 2 7 -5 17 -16 23
-33 21 -70 58 -72 73 -1 8 2 12 7 8 5 -3 7 -9 4 -14z m-1499 -33 c-3 -22 -56
-107 -67 -107 -6 0 -8 -8 -5 -17 4 -10 4 -14 0 -10 -4 3 -19 -2 -33 -11 -14
-10 -43 -27 -64 -37 -21 -11 -46 -27 -56 -35 -9 -8 -23 -16 -31 -18 -23 -5
-100 -65 -94 -73 3 -5 -2 -6 -10 -3 -9 3 -16 2 -16 -3 0 -13 -44 -33 -61 -28
-42 10 -58 19 -69 41 -8 13 -17 24 -22 24 -4 0 -8 9 -8 21 0 13 -4 18 -12 13
-15 -9 26 49 44 63 7 5 45 22 83 38 39 16 93 39 122 52 28 13 57 23 63 23 6 0
8 5 4 12 -4 6 -3 8 3 5 13 -8 74 3 69 12 -2 3 9 7 26 7 17 1 33 5 37 10 3 6
22 10 41 11 19 0 36 6 38 12 5 15 21 14 18 -2z m854 -32 c7 -8 17 -12 23 -8 5
3 7 2 4 -4 -8 -12 48 -64 59 -55 4 4 4 2 0 -5 -3 -7 7 -26 25 -44 17 -17 56
-66 87 -108 30 -42 61 -79 66 -83 7 -5 7 -8 1 -8 -5 0 -1 -7 9 -15 11 -8 16
-15 11 -15 -4 0 -2 -8 6 -17 30 -37 49 -82 39 -88 -13 -8 -281 2 -304 11 -9 3
-17 11 -17 18 -1 6 -3 20 -5 31 -4 29 -13 159 -15 230 -1 33 -4 64 -7 69 -7
12 -8 106 -1 106 4 0 12 -7 19 -15z m828 -98 c17 -10 32 -15 32 -11 0 4 6 2
13 -4 21 -18 167 -90 167 -84 0 4 5 -1 11 -11 6 -9 15 -15 20 -12 5 4 6 11 3
17 -5 7 -2 8 5 4 9 -6 9 -12 -3 -25 -9 -10 -16 -22 -16 -27 0 -6 -15 -25 -34
-43 -39 -38 -97 -49 -102 -19 -1 10 -22 46 -46 80 -25 35 -48 71 -51 81 -4 11
-12 15 -19 11 -7 -4 -10 -4 -6 1 4 4 -1 20 -12 35 -23 32 -13 33 38 7z m222
13 c0 -5 -5 -10 -11 -10 -5 0 -7 5 -4 10 3 6 8 10 11 10 2 0 4 -4 4 -10z
m-2444 -65 c-1 -8 -5 -17 -8 -21 -5 -4 -4 16 1 34 3 9 9 -1 7 -13z m2542 -8
c12 0 19 -3 17 -6 -3 -2 22 -22 55 -43 33 -22 60 -43 60 -48 0 -5 8 -11 18
-14 10 -3 35 -22 55 -41 21 -20 43 -33 49 -29 8 5 9 1 5 -10 -5 -13 -1 -19 13
-23 11 -3 20 -12 20 -20 0 -10 6 -13 16 -9 8 3 12 2 9 -4 -3 -6 -1 -10 5 -10
6 0 8 -4 5 -10 -3 -5 2 -10 11 -10 10 0 15 -3 11 -6 -6 -7 22 -39 34 -39 4 0
11 -4 16 -9 5 -5 3 -6 -4 -2 -7 4 -13 2 -13 -4 0 -6 7 -13 15 -16 8 -4 15 -13
15 -21 0 -18 -16 -9 -63 34 -19 17 -38 29 -41 26 -3 -4 -6 1 -6 10 0 10 -4 17
-8 17 -5 0 -18 8 -30 18 -50 42 -62 52 -123 93 -35 24 -67 43 -71 41 -5 -1 -8
2 -8 8 0 5 -12 16 -27 24 -48 25 -80 62 -77 87 1 13 3 29 3 34 1 6 5 4 10 -3
4 -7 17 -14 29 -15z m-2139 -33 c-6 -7 -8 -17 -5 -23 3 -5 3 -11 -1 -13 -14
-6 -43 -79 -37 -91 4 -7 3 -9 -1 -4 -11 10 -37 -51 -28 -67 3 -6 3 -8 -2 -4
-4 4 -14 3 -20 -2 -21 -17 -155 35 -155 59 0 5 47 40 104 77 58 37 103 70 101
73 -1 3 10 6 26 7 23 1 27 -2 18 -12z m-459 -14 c22 14 30 12 30 -9 0 -10 21
-42 47 -71 26 -29 47 -61 48 -71 1 -10 -2 -16 -6 -13 -10 6 -95 -76 -91 -88 1
-5 -3 -6 -9 -2 -7 4 -26 -9 -45 -30 -19 -21 -34 -35 -34 -32 0 3 -11 -4 -25
-16 -13 -11 -22 -25 -19 -30 3 -5 2 -8 -3 -7 -4 1 -21 -3 -36 -9 -16 -7 -33
-12 -38 -12 -6 0 -8 -4 -5 -9 3 -4 -5 -7 -17 -6 -12 1 -33 -2 -47 -8 -14 -5
-31 -11 -38 -13 -8 -1 -21 -6 -30 -10 -9 -4 -24 -8 -32 -9 -8 -2 -36 -9 -61
-18 -44 -13 -46 -13 -42 4 3 10 11 24 19 30 8 6 14 15 14 20 0 5 16 29 35 55
19 25 33 50 29 55 -3 5 0 8 8 7 7 -2 12 5 12 14 -1 10 2 15 7 13 10 -7 55 53
51 67 -1 5 1 7 6 4 12 -7 84 68 75 78 -4 4 0 4 10 0 9 -3 17 -2 17 4 0 5 18
21 40 36 23 15 38 31 35 36 -3 5 0 7 8 4 8 -3 21 2 30 10 8 8 18 12 22 8 5 -4
5 2 1 12 -5 15 -4 16 7 8 8 -7 18 -7 27 -2z m-120 -40 c0 -5 -5 -10 -11 -10
-5 0 -7 5 -4 10 3 6 8 10 11 10 2 0 4 -4 4 -10z m2796 -72 c96 -67 232 -173
251 -198 7 -8 13 -11 13 -6 0 5 9 -3 21 -18 11 -14 26 -23 32 -19 7 3 9 2 4
-2 -10 -11 43 -66 56 -58 6 3 7 2 4 -4 -6 -9 42 -60 53 -56 3 1 7 -7 7 -18 1
-15 -2 -18 -10 -11 -16 13 -119 42 -128 36 -4 -2 -9 1 -11 7 -2 7 -18 12 -35
13 -17 0 -29 4 -27 7 5 9 -45 21 -56 14 -6 -4 -10 -2 -10 3 0 11 -99 34 -112
25 -7 -4 -8 -1 -3 7 6 10 1 12 -19 8 -14 -3 -26 -2 -26 1 0 4 -8 7 -17 8 -36
3 -72 12 -92 23 -12 6 -21 8 -21 5 0 -5 -12 3 -44 32 -8 7 -16 9 -20 6 -3 -4
-6 -1 -6 6 0 18 -42 71 -51 65 -5 -3 -6 2 -3 10 3 8 -1 29 -9 45 -8 17 -12 30
-9 29 16 -5 71 34 96 66 39 52 65 48 172 -26z m-2900 -13 c-1 -8 -5 -17 -8
-21 -5 -4 -4 16 1 34 3 9 9 -1 7 -13z m-39 -40 c0 -8 -4 -12 -9 -9 -5 3 -6 10
-3 15 9 13 12 11 12 -6z m528 -29 c32 -14 63 -22 67 -20 4 3 8 0 8 -6 0 -6 4
-8 10 -5 7 4 6 -3 0 -20 -16 -43 -33 -60 -60 -61 -14 -1 -41 -4 -60 -8 -51
-10 -69 -12 -132 -21 -32 -4 -56 -10 -54 -14 4 -5 -38 -7 -89 -2 -18 1 -18 3
-4 14 29 22 122 101 163 139 46 42 56 43 151 4z m2109 -19 c-2 -7 7 -23 21
-35 14 -12 25 -27 25 -33 0 -5 4 -8 8 -5 4 2 9 -7 10 -21 1 -19 -2 -24 -13
-19 -22 8 -104 19 -147 20 -21 1 -38 4 -38 9 0 4 -13 7 -29 7 -46 0 -91 12
-91 24 0 6 12 12 27 13 15 0 29 6 31 11 1 5 12 7 24 4 14 -3 19 -1 15 6 -4 6
0 9 10 8 10 -2 34 2 53 9 19 7 44 9 55 5 24 -9 38 -3 29 12 -4 7 -2 8 4 4 6
-4 9 -12 6 -19z m-1998 -63 c1 -9 0 -13 -4 -10 -3 4 -7 14 -8 22 -1 9 0 13 4
10 3 -4 7 -14 8 -22z m594 17 c0 11 2 11 8 2 7 -12 53 -9 74 3 4 3 8 0 8 -6 0
-6 5 -8 11 -4 15 9 93 9 108 0 6 -4 10 -19 9 -34 -2 -22 -7 -27 -28 -26 -15 0
-31 3 -36 6 -5 3 -20 4 -34 3 -13 -1 -39 1 -57 5 -19 5 -33 4 -33 -2 0 -5 -6
-6 -12 -1 -7 4 -36 8 -64 9 -28 1 -57 5 -64 9 -9 6 -11 4 -5 -5 6 -10 4 -11
-6 -4 -16 10 -20 11 -56 13 -22 1 -25 3 -13 11 8 5 50 10 93 10 60 0 76 3 71
13 -5 8 -2 8 9 -2 14 -11 17 -11 17 0z m447 -6 c14 -3 23 -9 19 -12 -3 -3 0
-13 7 -21 10 -13 9 -14 -2 -7 -10 6 -13 4 -9 -6 8 -20 -205 -11 -224 10 -7 8
-8 11 -2 8 7 -4 14 2 17 12 3 14 15 21 38 23 47 4 125 1 156 -7z m134 6 c7 4
18 4 24 -1 6 -5 20 -9 30 -9 88 2 177 -4 164 -12 -24 -13 -101 -25 -186 -30
-26 -2 -51 -8 -55 -13 -5 -8 -8 -7 -8 1 0 6 -8 9 -19 6 -13 -3 -23 2 -31 16
-15 30 6 51 41 41 14 -4 32 -4 40 1z m-1917 -13 c-4 -7 -14 -21 -22 -30 -8 -9
-11 -23 -6 -30 4 -7 4 -10 -1 -6 -10 10 -48 -50 -39 -63 3 -5 1 -8 -6 -7 -6 2
-18 -10 -28 -27 -9 -16 -25 -36 -35 -43 -9 -7 -14 -18 -11 -24 4 -6 2 -8 -3
-5 -6 4 -21 -1 -34 -11 -22 -17 -46 -29 -67 -33 -4 -1 -18 -6 -31 -11 -20 -7
-22 -6 -13 5 7 8 8 17 4 21 -4 4 -2 6 4 4 13 -4 76 67 66 76 -4 4 -2 6 3 4 12
-4 56 38 48 46 -4 3 2 6 11 6 12 0 16 5 12 16 -3 8 -2 13 3 10 5 -3 24 8 42
25 40 37 102 89 107 89 2 0 0 -6 -4 -12z m822 -10 c3 -4 -1 -5 -10 -4 -8 1
-18 5 -22 8 -3 4 1 5 10 4 8 -1 18 -5 22 -8z m1654 6 c0 -8 -19 -13 -24 -6 -3
5 1 9 9 9 8 0 15 -2 15 -3z m-1557 -41 c-4 -10 -23 -42 -43 -73 -49 -73 -61
-96 -53 -104 10 -10 25 -7 18 4 -3 6 -2 10 3 10 4 0 14 16 22 35 8 19 17 35
22 35 4 0 8 6 8 14 0 17 63 74 96 86 37 14 82 13 174 -4 47 -8 94 -15 105 -16
47 -1 213 -9 243 -12 23 -1 32 -7 32 -20 0 -9 5 -20 10 -23 8 -5 8 -11 1 -19
-6 -7 -12 -63 -15 -126 -3 -63 -6 -115 -7 -115 -2 0 -6 -49 -13 -185 -3 -63
-8 -124 -10 -135 -2 -11 -1 -24 3 -30 9 -17 10 -35 0 -29 -5 3 -9 -23 -10 -58
0 -35 -3 -76 -5 -91 -4 -22 -2 -27 8 -21 10 6 11 5 1 -8 -7 -8 -11 -29 -9 -47
2 -17 0 -34 -5 -37 -4 -2 -6 -10 -3 -17 11 -30 -29 -45 -126 -45 -52 0 -146
-3 -207 -6 l-113 -6 -20 41 c-23 44 -60 65 -90 49 -22 -12 -34 -44 -26 -73 3
-12 1 -29 -4 -37 -5 -8 -10 -10 -10 -5 0 6 -9 11 -20 12 -13 1 -18 -2 -13 -10
5 -9 3 -9 -8 -1 -8 6 -25 11 -39 12 -61 2 -220 26 -220 32 0 4 9 15 20 25 28
26 25 39 -5 19 -14 -9 -25 -15 -26 -13 -9 40 -4 51 30 65 32 13 100 78 101 95
0 4 19 19 42 34 24 16 37 30 30 33 -7 2 -18 -1 -25 -6 -7 -6 -45 -20 -85 -31
-39 -11 -76 -23 -82 -26 -7 -4 -10 7 -9 34 2 34 7 41 23 42 12 0 30 2 41 4 11
2 43 7 70 10 88 10 105 16 153 53 26 20 67 47 92 59 l45 24 -40 -5 c-22 -3
-76 -8 -120 -12 -78 -6 -119 -19 -147 -47 -16 -15 -83 -57 -92 -57 -20 0 3 33
72 97 l77 74 146 -6 147 -7 63 32 c35 18 77 34 94 37 61 9 43 20 -47 28 -148
13 -168 11 -235 -24 -69 -34 -125 -43 -103 -15 22 25 154 99 175 97 128 -12
162 -3 258 75 57 46 76 56 117 60 28 2 50 8 50 13 0 17 -67 27 -165 25 -122
-3 -170 -22 -252 -104 -47 -47 -101 -87 -181 -136 -25 -15 8 35 41 63 51 43
77 74 99 116 11 22 30 50 41 62 27 30 15 40 -20 16 -15 -10 -46 -28 -67 -38
-53 -27 -88 -79 -121 -177 -26 -80 -30 -86 -101 -146 -41 -34 -74 -57 -74 -49
0 8 18 39 40 69 25 35 44 77 51 110 9 38 21 62 45 85 36 34 43 49 19 39 -21
-8 -19 1 19 72 19 35 30 65 24 68 -5 3 -11 4 -12 3 -8 -10 -75 -130 -74 -132
4 -6 -54 -86 -82 -112 l-33 -30 8 50 c4 28 8 66 9 87 0 20 4 34 9 31 4 -2 7 4
7 15 0 10 9 52 19 92 11 41 18 77 15 81 -2 4 0 10 6 14 5 3 10 16 10 28 1 46
25 61 118 73 48 6 90 9 94 7 4 -2 4 -11 1 -20z m1557 12 c19 -2 53 -7 75 -11
64 -9 128 -17 158 -18 15 0 27 -3 27 -6 0 -3 15 -7 32 -8 39 -3 78 -27 78 -47
0 -8 4 -15 8 -15 4 0 9 -12 10 -27 1 -15 7 -30 13 -34 6 -3 10 -9 9 -13 -4
-16 24 -116 32 -116 5 0 7 -3 5 -7 -7 -12 28 -175 35 -167 4 3 5 -7 4 -22 -2
-16 2 -32 8 -36 8 -6 8 -8 -1 -8 -6 0 -9 -9 -6 -20 3 -11 9 -17 14 -14 5 3 9
0 9 -5 0 -6 -4 -11 -8 -11 -4 0 -4 -29 2 -65 6 -42 13 -62 20 -58 6 4 5 -1 -3
-10 -11 -14 -11 -17 0 -17 10 0 10 -3 3 -8 -6 -4 -10 -16 -8 -27 3 -20 2 -20
-12 -1 -25 34 -29 7 -6 -37 31 -57 34 -153 6 -181 -20 -20 -29 -20 -49 1 -15
14 -16 33 -12 135 6 143 -1 173 -53 228 -22 24 -53 59 -68 78 -16 19 -34 33
-41 31 -8 -3 -6 -10 7 -24 40 -43 53 -75 58 -136 5 -67 18 -121 38 -154 14
-21 37 -85 32 -85 -2 0 -24 30 -50 68 -25 37 -56 79 -67 93 -15 19 -24 50 -30
105 -10 98 -17 121 -44 161 -35 52 -185 173 -185 150 0 -2 17 -22 39 -44 27
-30 40 -52 44 -83 5 -40 21 -68 87 -154 50 -65 34 -73 -27 -13 -32 30 -74 68
-94 85 -26 23 -38 44 -47 82 -24 106 -63 163 -133 198 -28 14 -44 37 -86 122
-29 58 -52 113 -52 122 -1 31 101 41 229 23z m-277 -12 c-5 -13 -2 -15 11 -10
10 4 15 3 11 -4 -4 -5 0 -21 9 -34 9 -13 16 -31 16 -40 0 -10 5 -13 12 -9 6 4
9 3 6 -2 -7 -12 10 -57 19 -51 5 3 9 -13 10 -36 2 -22 7 -43 12 -47 11 -6 83
-171 78 -177 -2 -2 -31 24 -63 58 -64 66 -96 86 -164 104 -54 14 -171 18 -219
7 -50 -11 -52 -32 -3 -32 42 0 86 -25 155 -87 52 -47 79 -55 172 -52 90 3 123
-11 149 -62 17 -35 10 -36 -46 -6 -41 21 -117 27 -183 13 -11 -3 -41 -5 -67
-5 -27 -1 -48 -5 -48 -11 0 -5 13 -10 28 -10 16 0 59 -16 97 -36 65 -35 71
-36 156 -32 88 3 89 3 103 -24 8 -15 12 -28 10 -31 -4 -4 -100 8 -119 14 -5 2
-11 0 -12 -6 -2 -5 10 -14 25 -20 35 -13 138 -91 146 -111 3 -9 6 -24 6 -34 0
-10 6 -25 13 -32 6 -7 13 -29 15 -48 1 -19 6 -37 10 -40 4 -3 8 -14 9 -25 0
-11 3 -29 6 -40 3 -11 8 -31 11 -45 9 -36 -6 -52 -48 -53 -20 -1 -36 -6 -36
-11 0 -6 -4 -5 -9 2 -4 7 -12 12 -17 11 -5 -1 -21 -1 -36 0 -26 1 -27 3 -16
26 10 22 8 30 -9 53 -33 44 -76 33 -108 -26 -18 -32 -25 -37 -60 -39 -22 -1
-42 -2 -45 -3 -21 -7 -40 -7 -40 -1 0 4 -29 8 -65 9 -49 1 -64 -2 -58 -11 5
-9 4 -9 -8 0 -8 6 -47 13 -87 14 -86 2 -82 -6 -80 154 2 264 -6 530 -16 537
-8 5 -7 8 0 8 8 0 10 15 7 43 -4 37 -7 195 -4 238 1 24 21 29 130 35 53 2 107
7 121 11 14 3 42 6 62 7 20 1 40 4 44 9 12 11 14 8 7 -10z m-1517 -44 c-1 -16
-6 -32 -9 -36 -12 -12 -8 -45 5 -37 7 4 8 3 4 -5 -4 -6 -12 -8 -18 -5 -7 5 -9
0 -6 -14 3 -12 2 -22 -3 -24 -5 -2 -11 -24 -12 -50 -1 -25 -5 -44 -8 -43 -3 2
-10 -18 -15 -46 -7 -30 -7 -49 -1 -49 5 0 5 -5 -1 -13 -9 -11 -36 -158 -57
-311 -5 -38 -20 -66 -68 -132 -34 -46 -63 -80 -65 -75 -2 5 11 37 29 71 22 43
33 78 36 123 6 89 9 99 43 143 19 23 27 40 20 42 -6 2 -18 -6 -27 -18 -8 -11
-36 -44 -61 -72 -71 -76 -72 -78 -70 -229 0 -75 -2 -142 -6 -148 -4 -6 -18
-11 -32 -11 -50 0 -63 111 -21 183 31 52 32 57 15 57 -13 0 -65 -86 -102 -167
-17 -37 -22 -41 -52 -40 -19 1 -34 4 -34 7 0 5 -88 34 -100 33 -3 0 -33 10
-66 23 -34 13 -64 20 -68 17 -3 -4 -6 -1 -6 5 0 7 -6 12 -14 12 -8 0 -38 12
-66 26 -37 18 -55 23 -63 15 -7 -7 -3 -13 14 -20 13 -5 59 -23 102 -40 43 -18
83 -29 89 -25 6 4 8 3 5 -3 -6 -9 58 -33 98 -37 6 -1 12 -4 15 -7 3 -3 32 -12
64 -20 58 -14 60 -16 63 -49 2 -19 8 -55 14 -79 5 -24 9 -45 7 -46 -11 -9 -58
-13 -63 -6 -5 10 7 79 22 117 6 17 5 17 -10 5 -9 -7 -25 -41 -36 -75 l-19 -61
-53 -14 c-176 -44 -208 -54 -205 -60 2 -3 -8 -7 -22 -7 -39 -2 -150 -36 -199
-60 -24 -12 -43 -17 -43 -12 0 5 -4 7 -9 4 -11 -7 -20 29 -16 74 1 19 -3 38
-9 42 -7 5 -7 8 0 8 5 0 11 18 12 40 2 22 10 56 18 76 8 20 13 38 10 41 -3 3
2 12 10 20 8 9 13 22 10 30 -3 8 -1 11 4 8 6 -3 10 1 10 10 0 10 -5 13 -12 9
-7 -4 -8 -3 -4 5 4 6 11 9 16 6 7 -5 35 44 42 75 2 8 9 21 16 29 7 7 11 20 7
29 -4 12 -3 13 10 2 19 -16 54 -5 37 12 -15 15 -16 55 -1 63 6 4 8 14 5 22 -3
8 -2 12 2 9 8 -5 92 127 92 145 0 5 4 9 8 9 4 0 16 15 26 33 11 17 28 42 39
55 11 12 17 22 14 22 -4 0 2 9 13 20 12 12 18 26 14 32 -4 6 -3 8 3 5 6 -4 24
14 42 38 17 24 39 51 47 60 9 8 12 15 7 15 -4 0 3 7 15 16 12 8 19 20 16 26
-4 7 -2 8 4 4 11 -6 38 31 34 47 -1 4 2 6 7 5 5 -2 27 16 50 40 22 23 47 42
56 42 9 0 14 4 11 9 -3 4 6 6 21 3 18 -3 24 -1 19 6 -4 8 -2 10 8 6 8 -3 41 0
73 6 32 7 65 14 73 15 8 2 15 4 15 5 0 1 19 4 42 6 24 3 62 8 85 13 57 10 68
5 64 -30z m2722 16 c-3 -3 -9 2 -12 12 -6 14 -5 15 5 6 7 -7 10 -15 7 -18z
m-1757 -3 c8 2 17 8 21 13 5 6 8 6 8 -2 0 -14 42 -13 52 2 5 6 8 6 8 -2 0 -7
8 -13 19 -13 10 0 24 -7 31 -15 7 -8 15 -13 19 -11 3 2 6 -18 5 -45 0 -28 3
-52 8 -55 5 -3 5 -10 2 -16 -10 -15 -10 -88 -1 -88 4 0 4 -7 0 -14 -13 -23 -3
-107 11 -99 8 5 7 2 -1 -8 -9 -11 -11 -92 -8 -314 3 -165 1 -305 -3 -311 -4
-6 -16 -14 -27 -18 -20 -6 -20 -2 -17 196 l3 202 -30 -35 c-17 -19 -33 -42
-37 -51 -10 -33 -21 -18 -22 30 0 105 1 103 -29 99 -27 -3 -28 -6 -33 -75 l-5
-72 -42 55 -43 55 6 97 c3 53 7 100 10 104 2 4 0 11 -6 14 -7 4 -7 11 -2 18 5
7 10 19 10 27 0 8 3 51 6 95 16 218 16 219 39 237 13 10 24 13 28 7 3 -6 12
-9 20 -7z m1234 -11 c-9 -8 -36 -10 -30 -2 2 4 11 8 20 8 8 0 13 -3 10 -6z
m589 1 c3 -5 -1 -9 -9 -9 -8 0 -12 4 -9 9 3 4 7 8 9 8 2 0 6 -4 9 -8z m-572
-24 c-9 -9 2 -24 47 -65 33 -29 92 -97 133 -151 40 -53 76 -99 79 -102 13 -12
69 -100 69 -109 0 -5 7 -14 16 -19 9 -5 16 -13 16 -18 0 -5 17 -38 38 -74 20
-36 50 -87 65 -115 15 -27 31 -54 36 -59 5 -6 9 -20 9 -33 0 -13 6 -23 13 -23
19 -1 -36 -40 -55 -40 -10 0 -18 -4 -18 -8 0 -4 -12 -9 -27 -10 -16 -1 -30 -7
-31 -12 -2 -6 -8 -8 -13 -5 -11 7 -90 -16 -85 -24 2 -3 -6 -6 -17 -7 -12 0
-38 -4 -57 -8 l-35 -7 -27 63 c-14 35 -28 74 -30 88 -1 14 -7 28 -13 32 -6 5
-5 8 3 8 7 0 11 3 9 8 -3 4 -8 38 -12 75 -3 37 -8 78 -11 90 -2 12 -6 38 -10
57 -6 41 -41 200 -54 250 -6 19 -21 73 -34 120 -16 58 -20 89 -14 98 6 6 13
12 16 12 3 0 1 -5 -6 -12z m70 -4 c29 -5 53 -11 101 -23 20 -5 37 -7 37 -4 0
3 7 0 15 -7 8 -7 23 -9 32 -6 10 4 14 4 10 -1 -5 -4 16 -13 45 -20 58 -15 65
-17 88 -26 54 -23 68 -25 80 -14 10 9 11 9 6 0 -8 -14 91 -63 131 -66 11 -1
20 -4 18 -7 -4 -9 63 -69 70 -62 3 3 3 -1 0 -10 -3 -8 0 -22 8 -29 7 -8 14
-16 14 -19 1 -19 16 -50 24 -50 5 0 8 -3 8 -7 -3 -21 2 -33 13 -27 6 4 8 3 5
-3 -4 -6 3 -33 16 -61 16 -35 27 -48 40 -47 9 2 15 -1 11 -6 -3 -5 -10 -6 -16
-3 -8 5 -9 -1 -4 -17 14 -50 16 -68 6 -74 -17 -11 -11 -25 15 -35 16 -6 25
-17 25 -30 0 -12 4 -19 9 -16 4 3 6 -6 3 -21 -3 -14 -1 -24 4 -20 5 3 10 -11
11 -31 1 -20 7 -38 13 -40 5 -2 8 -7 5 -12 -5 -8 10 -98 22 -130 3 -8 7 -33 9
-55 2 -22 6 -60 9 -85 3 -25 8 -81 11 -125 3 -44 11 -83 17 -87 9 -6 9 -8 1
-8 -7 0 -15 -12 -19 -27 -4 -19 -9 -23 -15 -14 -4 8 -13 10 -19 7 -6 -4 -11
-2 -11 3 0 6 -7 11 -15 11 -8 0 -44 15 -79 34 -35 19 -68 31 -72 28 -4 -4 -5
-2 -1 3 3 6 -7 25 -22 42 -34 40 -54 86 -82 190 -13 51 -25 80 -32 76 -5 -3
-7 -1 -4 5 9 14 -3 43 -14 36 -5 -3 -6 1 -3 9 3 8 -5 25 -18 37 -13 13 -17 20
-10 15 8 -4 13 -2 11 6 -3 29 2 37 41 54 22 10 37 22 33 28 -3 6 -1 7 5 3 6
-3 28 3 49 14 51 26 129 95 116 103 -5 4 -19 -2 -30 -12 -10 -10 -30 -24 -42
-31 -19 -10 -21 -14 -10 -22 10 -7 9 -8 -6 -4 -24 7 -50 -8 -41 -23 4 -7 1 -9
-8 -5 -16 6 -76 -25 -76 -39 0 -4 -4 -6 -9 -3 -14 9 -42 -5 -34 -18 4 -7 3 -8
-4 -1 -6 6 -37 60 -69 122 -32 62 -62 109 -67 106 -6 -3 -7 -1 -3 5 6 11 -50
114 -66 120 -4 2 -8 8 -8 12 0 19 -104 159 -113 153 -6 -4 -8 0 -4 9 6 18 -25
52 -38 41 -4 -5 -5 -2 -1 4 9 16 -33 75 -47 66 -6 -3 -7 -1 -3 5 3 6 -4 18
-16 26 -12 9 -18 16 -13 16 13 0 -14 25 -28 25 -7 0 -11 8 -9 17 2 16 -14 33
-32 33 -5 0 -10 8 -12 18 -1 9 2 15 7 11 5 -3 19 -7 31 -10z m-2797 -45 c11 2
16 -1 12 -6 -44 -44 -121 -137 -119 -144 1 -5 -5 -9 -14 -9 -10 0 -14 -6 -10
-15 3 -8 2 -14 -2 -12 -8 2 -72 -66 -72 -77 0 -3 -16 -26 -35 -52 -19 -25 -33
-50 -29 -55 3 -5 0 -8 -8 -7 -7 2 -12 -5 -12 -14 1 -10 -5 -18 -13 -18 -8 0
-11 -4 -8 -10 3 -5 1 -10 -5 -10 -7 0 -9 -7 -6 -16 3 -8 2 -12 -4 -9 -6 3 -13
-2 -17 -12 -3 -10 -14 -30 -24 -44 -14 -20 -15 -29 -6 -38 9 -10 9 -11 -4 -6
-11 4 -22 -7 -38 -39 -13 -24 -20 -49 -17 -54 4 -6 -7 -4 -23 4 -16 8 -34 28
-40 45 -5 16 -6 27 -2 24 11 -6 24 42 15 58 -4 7 -3 8 2 4 9 -8 35 68 38 110
0 11 4 19 8 17 10 -6 20 34 12 47 -4 8 -3 9 4 5 7 -4 12 -1 13 6 1 28 8 47 32
98 14 30 24 58 21 62 -3 5 -2 7 3 6 11 -4 53 39 45 46 -3 3 0 6 7 6 6 0 24 12
38 28 15 15 24 22 20 17 -3 -6 20 1 51 16 31 15 78 31 104 34 30 4 46 11 41
17 -4 7 -1 8 8 2 8 -5 23 -7 34 -5z m3381 -35 c19 -25 37 -48 74 -91 11 -12
16 -24 12 -26 -8 -5 -66 34 -70 46 -5 19 -50 76 -55 70 -4 -3 -7 -2 -7 4 0 11
10 23 20 23 4 0 16 -12 26 -26z m-3727 -103 c-53 -100 -121 -269 -114 -282 4
-5 2 -9 -3 -9 -8 0 -30 -68 -37 -110 0 -3 -6 -15 -13 -26 -6 -12 -8 -25 -4
-29 4 -5 -7 1 -25 13 -67 47 -112 126 -99 178 4 16 2 24 -6 25 -10 0 -10 2 -1
6 7 2 21 23 31 46 11 23 29 50 40 61 12 10 19 23 15 29 -3 5 -2 7 3 4 6 -3 30
10 54 30 25 19 71 46 102 60 32 15 55 29 53 33 -2 4 2 7 10 7 11 0 10 -8 -6
-36z m-144 -30 c-9 -8 -36 -10 -30 -2 2 4 11 8 20 8 8 0 13 -3 10 -6z m3980
-1 c3 -5 1 -10 -4 -10 -6 0 -11 5 -11 10 0 6 2 10 4 10 3 0 8 -4 11 -10z m-1
-38 c3 -5 -1 -9 -9 -9 -8 0 -12 4 -9 9 3 4 7 8 9 8 2 0 6 -4 9 -8z m61 -54 c5
4 5 2 1 -5 -3 -6 2 -18 11 -25 10 -7 19 -17 19 -23 1 -5 5 -20 9 -32 4 -14 2
-23 -4 -23 -6 0 -11 5 -11 11 0 5 -5 7 -12 3 -7 -4 -8 -3 -4 4 9 14 -23 64
-35 56 -5 -3 -9 -2 -8 3 4 21 -2 34 -13 27 -7 -4 -8 -3 -4 4 5 8 13 9 25 2 10
-5 22 -6 26 -2z m-1236 -80 c7 -12 8 -18 1 -18 -14 0 -74 61 -78 79 -3 15 59
-34 77 -61z m-4 -66 c-20 -4 -20 -4 -30 28 l-7 25 27 -25 c22 -21 24 -26 10
-28z m-2975 -45 c0 -22 71 -127 86 -127 9 0 13 -4 10 -8 -3 -5 5 -15 19 -22
16 -9 22 -19 19 -34 -16 -74 -21 -107 -20 -134 1 -16 -2 -28 -6 -25 -7 4 -9
-8 -12 -74 -1 -10 -5 -21 -10 -25 -6 -4 -4 -14 5 -24 8 -10 9 -15 2 -11 -16
10 -22 -3 -26 -50 -2 -22 -7 -45 -11 -52 -4 -6 -5 -15 -2 -20 4 -5 1 -11 -4
-13 -6 -2 -12 -20 -13 -40 -1 -20 -4 -34 -8 -33 -3 2 -10 -9 -16 -26 -7 -17
-7 -29 -2 -29 18 0 -59 -83 -81 -88 -8 -2 -18 -8 -21 -14 -3 -5 -10 -10 -15
-10 -14 0 -64 -31 -64 -40 0 -4 -6 -8 -12 -8 -7 -1 -38 -25 -68 -55 -45 -45
-56 -51 -61 -37 -4 9 -2 25 3 36 8 14 7 17 -3 11 -8 -5 -10 -4 -5 3 10 16 15
46 21 117 2 33 12 92 20 130 8 39 17 81 19 95 2 14 6 32 9 40 29 79 45 156 35
167 -8 11 -7 12 7 6 14 -5 17 -3 12 10 -3 9 -2 19 4 23 6 3 8 13 5 21 -3 8 -2
12 2 9 5 -3 19 26 32 65 13 38 29 69 34 69 5 0 7 3 3 6 -3 4 7 33 24 66 16 32
27 64 23 70 -4 6 -3 8 3 5 6 -4 19 9 29 28 19 36 34 45 34 22z m3129 -63 c45
-42 81 -80 81 -86 0 -16 -43 3 -97 44 -28 21 -68 42 -88 45 -26 4 -39 13 -46
30 -14 39 -11 43 30 43 35 0 48 -8 120 -76z m1161 70 c0 -8 -19 -13 -24 -6 -3
5 1 9 9 9 8 0 15 -2 15 -3z m27 -29 c0 -8 -4 -12 -9 -9 -5 3 -6 10 -3 15 9 13
12 11 12 -6z m32 1 c9 -11 9 -16 -1 -22 -7 -4 -10 -4 -6 1 4 4 3 14 -3 22 -6
7 -9 13 -6 13 2 0 10 -6 16 -14z m-57 -21 c3 3 11 -8 18 -25 7 -16 17 -27 23
-23 5 3 7 1 4 -4 -4 -6 10 -44 31 -85 20 -40 46 -94 57 -120 10 -26 22 -43 25
-38 3 5 7 -6 7 -26 1 -21 11 -50 23 -67 13 -16 18 -27 11 -23 -6 4 -11 3 -11
-3 0 -5 4 -12 9 -15 5 -3 11 -18 14 -33 14 -74 29 -118 45 -130 9 -8 11 -11 4
-8 -11 6 -12 0 -7 -26 4 -19 9 -47 12 -64 2 -16 7 -37 10 -45 3 -8 7 -33 9
-55 6 -63 13 -118 19 -150 6 -28 5 -28 -13 -12 -10 9 -22 14 -27 10 -4 -5 -5
-3 -1 4 4 7 -2 17 -13 23 -11 6 -32 22 -47 35 -28 26 -50 33 -38 13 4 -8 3
-10 -2 -5 -5 5 -9 12 -9 16 0 4 -12 19 -27 32 -26 23 -27 29 -34 159 -4 74 -7
141 -7 148 0 6 -3 12 -7 12 -3 0 -5 14 -4 30 1 17 -2 30 -8 30 -5 0 -7 4 -4 9
9 14 -5 101 -15 95 -5 -3 -6 2 -3 10 7 17 -14 115 -27 132 -5 6 -7 13 -4 15 2
3 -4 32 -15 66 -10 33 -16 70 -13 82 3 12 -1 29 -8 39 -12 15 -12 16 2 5 9 -7
18 -10 21 -8z m-2132 -51 c0 -21 -4 -33 -10 -29 -5 3 -10 19 -10 36 0 16 5 29
10 29 6 0 10 -16 10 -36z m-64 -93 c36 -56 28 -88 -8 -35 -25 36 -37 74 -23
74 3 0 16 -18 31 -39z m145 8 c-5 -13 -21 -37 -35 -54 -37 -44 -33 -8 5 44 32
45 46 50 30 10z m889 1 c50 -6 103 -16 115 -23 36 -18 145 -180 131 -194 -3
-3 -33 24 -68 60 -57 59 -70 67 -138 86 -103 30 -136 46 -143 70 -3 12 -2 19
3 16 4 -2 49 -9 100 -15z m1285 0 c3 -5 1 -10 -4 -10 -6 0 -11 5 -11 10 0 6 2
10 4 10 3 0 8 -4 11 -10z m-4215 -50 c0 -11 -9 -35 -20 -55 -11 -19 -18 -40
-16 -47 1 -7 1 -10 -1 -5 -3 4 -9 5 -14 1 -12 -7 -14 28 -4 81 2 11 4 26 4 33
1 6 12 12 26 12 18 0 25 -5 25 -20z m826 -27 c-4 -10 -6 -18 -5 -18 9 0 -44
-85 -65 -104 -47 -44 -40 -12 14 69 51 74 71 94 56 53z m1006 -92 c1 -61 0
-113 -3 -116 -9 -9 -12 40 -10 159 2 117 12 86 13 -43z m1095 42 c41 -48 48
-52 243 -120 19 -7 -32 -22 -81 -25 -26 -1 -47 7 -73 27 -39 30 -53 14 -15
-18 11 -10 19 -20 17 -22 -1 -2 -27 -8 -57 -13 -48 -9 -54 -8 -58 9 -3 10 -10
16 -16 12 -6 -3 -7 -1 -3 5 8 13 -4 93 -13 88 -3 -2 -6 11 -7 28 0 18 -4 42
-9 52 -4 10 -10 27 -11 37 -4 16 -2 16 19 2 13 -8 41 -36 64 -62z m-1007 -15
c0 -10 -2 -18 -5 -18 -9 0 -64 88 -58 93 9 10 63 -55 63 -75z m96 16 c-21 -27
-36 -40 -36 -31 0 24 53 97 64 87 4 -5 -8 -30 -28 -56z m2238 40 c3 -8 2 -12
-4 -9 -6 3 -10 10 -10 16 0 14 7 11 14 -7z m-492 -118 c14 -34 37 -88 49 -121
13 -33 26 -62 29 -65 3 -3 5 -9 5 -15 1 -23 17 -75 23 -75 4 0 7 -11 7 -24 0
-22 -4 -25 -37 -23 -20 1 -35 4 -32 8 2 4 -20 12 -49 19 -28 7 -71 18 -95 26
-24 8 -48 12 -53 9 -5 -4 -9 -2 -9 3 0 5 -19 13 -42 17 -24 4 -52 9 -63 12
-24 4 -45 30 -45 54 0 10 -10 39 -22 66 -15 34 -22 43 -25 30 -3 -10 0 -32 6
-49 12 -33 15 -81 5 -90 -11 -11 -65 24 -60 38 3 8 10 43 17 78 l11 65 86 26
c204 60 243 75 236 87 -3 5 3 4 13 -3 11 -6 31 -39 45 -73z m-1868 24 c26 -40
32 -60 19 -60 -12 0 -53 64 -53 83 0 25 4 22 34 -23z m156 23 c0 -5 -29 -47
-57 -82 -2 -2 -6 -1 -9 2 -8 8 45 87 57 87 5 0 9 -3 9 -7z m-1200 -78 c0 -30
-22 -42 -52 -28 l-22 9 22 22 c30 30 52 28 52 -3z m1197 -2 c0 -23 -15 -43
-34 -43 -10 0 -8 8 9 30 26 35 25 35 25 13z m-159 -21 c13 -19 13 -22 0 -22
-8 0 -20 12 -27 26 -14 32 5 29 27 -4z m-1133 8 c-3 -5 -14 -10 -23 -9 -14 0
-13 2 3 9 27 11 27 11 20 0z m-97 -26 c1 0 -9 -27 -24 -58 -14 -32 -28 -56
-30 -54 -1 2 2 34 8 70 10 58 14 66 27 55 9 -6 17 -12 19 -13z m2637 -76 l6
-53 -28 65 c-25 56 -27 66 -14 71 20 8 28 -13 36 -83z m-2555 48 c0 -28 -35
-62 -73 -72 l-28 -6 16 38 c10 22 19 46 22 55 3 11 13 14 34 11 22 -3 29 -10
29 -26z m2506 -32 l22 -51 -26 5 c-14 3 -37 16 -49 29 -13 12 -37 30 -53 38
-28 15 -39 26 -22 24 23 -4 52 2 48 10 -3 4 9 5 26 2 26 -5 36 -15 54 -57z
m-1451 36 c4 -6 1 -9 -6 -8 -8 2 -13 -7 -13 -22 -1 -24 -4 -25 -67 -26 -37 -1
-72 -5 -78 -8 -6 -4 -11 -3 -11 2 0 5 -6 9 -12 9 -45 1 -194 15 -197 19 -2 2
8 4 22 4 15 0 27 6 27 13 0 8 4 7 10 -3 8 -12 10 -12 10 -1 0 10 3 11 13 2 8
-6 17 -8 21 -4 3 4 61 8 129 10 67 2 126 8 132 14 11 11 12 11 20 -1z m89 -35
c9 -13 16 -26 16 -27 0 -2 -16 -3 -35 -2 -44 1 -70 21 -54 40 18 22 55 17 73
-11z m36 15 c0 -5 -2 -10 -4 -10 -3 0 -8 5 -11 10 -3 6 -1 10 4 10 6 0 11 -4
11 -10z m80 6 c0 -3 -4 -8 -10 -11 -5 -3 -10 -1 -10 4 0 6 5 11 10 11 6 0 10
-2 10 -4z m118 -13 c-6 -7 -7 -13 -2 -13 4 0 3 -5 -3 -11 -14 -14 -103 -19
-103 -6 0 6 8 19 17 29 21 23 111 24 91 1z m205 2 c10 -5 17 -2 17 5 0 10 3
10 15 0 12 -10 15 -10 15 1 0 9 3 10 8 3 4 -5 24 -10 45 -10 41 1 78 -13 42
-15 -11 0 -33 -3 -50 -5 -53 -7 -239 -13 -257 -8 -9 3 -16 14 -15 25 1 20 6
20 82 16 44 -3 88 -9 98 -12z m727 -4 c10 -20 4 -32 -13 -26 -7 3 -34 6 -60 9
-64 5 -68 13 -15 23 67 14 77 13 88 -6z m-2136 -9 c3 -5 -1 -9 -9 -9 -8 0 -12
4 -9 9 3 4 7 8 9 8 2 0 6 -4 9 -8z m86 2 c0 -8 -19 -13 -24 -6 -3 5 1 9 9 9 8
0 15 -2 15 -3z m38 -4 c-4 -14 190 -19 196 -5 3 6 5 -1 5 -15 1 -15 -3 -30 -7
-35 -5 -6 -18 -33 -30 -61 -12 -28 -36 -82 -53 -120 -80 -175 -89 -196 -89
-199 0 -1 -26 -58 -59 -126 -32 -68 -61 -134 -65 -147 -5 -13 -11 -21 -14 -17
-9 9 -19 77 -21 143 -1 31 -4 41 -13 36 -10 -6 -10 -4 0 7 6 7 12 17 12 22 0
4 -6 5 -12 1 -9 -5 -9 -2 1 9 13 16 8 22 -13 18 -5 -1 -4 4 2 12 6 7 10 31 8
53 -2 21 -7 110 -11 197 -9 190 -8 192 91 202 35 4 63 10 62 14 -1 11 2 21 7
21 3 0 4 -5 3 -10z m1767 -11 c31 -2 39 0 37 11 -2 8 -1 12 3 8 4 -3 7 -10 6
-15 0 -4 10 -18 22 -31 11 -12 22 -28 23 -35 2 -6 13 -61 25 -122 12 -60 24
-117 27 -125 5 -16 7 -34 10 -88 1 -24 6 -31 15 -26 9 6 9 5 0 -8 -7 -8 -10
-17 -8 -20 6 -5 7 -17 20 -155 5 -46 11 -70 18 -66 6 4 7 1 1 -8 -11 -18 -6
-52 10 -61 7 -5 6 -8 -4 -8 -17 0 -49 65 -197 395 -52 116 -108 239 -124 273
-16 35 -27 68 -23 73 3 5 23 9 45 9 30 0 38 3 33 13 -6 9 -5 9 7 0 8 -6 32
-12 54 -14z m-1929 -14 c-1 -8 -5 -17 -8 -21 -5 -4 -4 16 1 34 3 9 9 -1 7 -13z
m624 -26 c184 -36 253 -62 263 -98 3 -11 1 -21 -5 -23 -6 -2 -5 -14 1 -31 6
-15 7 -27 3 -27 -12 0 -4 -240 9 -256 9 -12 9 -13 -2 -9 -12 4 -14 -37 -12
-261 1 -147 4 -273 7 -280 3 -7 0 -14 -5 -16 -7 -2 -7 -13 0 -31 6 -15 7 -27
3 -27 -4 0 -7 -24 -5 -54 2 -77 -8 -84 -129 -85 -47 -1 -68 -5 -68 -13 0 -10
26 -13 97 -13 93 0 96 -1 98 -23 1 -13 -3 -26 -8 -29 -6 -3 -7 -1 -3 5 4 7 3
12 -3 12 -5 0 -13 -5 -16 -10 -4 -7 -12 -7 -18 -2 -12 9 -87 14 -239 16 -49 0
-88 4 -88 9 0 4 5 7 11 7 5 0 7 6 3 13 -6 9 -5 9 8 0 8 -7 18 -10 21 -7 4 4
34 7 67 7 41 0 60 5 60 13 0 14 -57 14 -79 0 -9 -6 -12 -5 -8 0 3 6 -8 9 -26
7 -18 -1 -51 -3 -74 -4 -27 -2 -40 -6 -36 -13 5 -8 2 -8 -8 0 -8 6 -30 10 -49
8 -19 -2 -79 -5 -133 -6 -84 -3 -100 0 -111 14 -7 10 -15 16 -18 13 -2 -3 -5
1 -6 8 -1 6 -8 41 -16 77 -9 36 -18 81 -21 100 -3 20 -8 47 -11 60 -10 47 -16
120 -10 120 3 0 27 -14 53 -30 112 -71 299 -93 433 -51 69 22 170 77 208 115
l23 22 -61 130 c-68 144 -61 128 -131 284 -28 63 -64 142 -79 175 -48 106 -90
203 -90 210 0 8 82 -2 200 -26z m1090 -17 c-26 -51 -110 -233 -110 -239 0 -2
-14 -34 -31 -71 -18 -37 -58 -125 -90 -197 -32 -71 -72 -157 -89 -190 l-30
-59 38 -33 c185 -162 475 -169 685 -16 50 37 52 36 47 -25 -1 -13 4 -30 12
-39 7 -9 8 -14 2 -10 -8 5 -11 -14 -9 -64 2 -53 -2 -79 -17 -107 -10 -20 -27
-62 -37 -92 -12 -35 -24 -56 -36 -58 -11 -3 -15 0 -11 7 12 18 -9 12 -31 -9
-13 -12 -23 -15 -25 -8 -3 8 -10 8 -24 0 -13 -7 -25 -7 -37 -1 -9 6 -17 6 -17
1 0 -5 -16 -8 -35 -8 -19 1 -35 3 -35 6 0 3 -21 5 -48 6 -78 1 -224 13 -230
18 -2 3 -14 1 -25 -5 -10 -6 -17 -7 -14 -2 4 6 -27 11 -76 12 -89 2 -210 8
-215 10 -1 0 2 10 8 21 8 15 8 20 -2 20 -10 0 -10 2 -1 8 6 4 12 35 12 72 1
36 3 87 6 114 3 31 0 55 -8 65 -7 9 -8 12 -1 8 8 -4 12 8 12 39 1 24 4 49 7
54 4 6 1 10 -5 10 -6 0 -8 5 -3 13 4 6 9 23 11 35 2 17 -1 22 -10 16 -10 -6
-10 -5 -2 7 6 8 12 45 13 84 2 38 5 73 7 77 3 4 0 8 -6 8 -6 0 -8 5 -4 11 3 6
6 112 7 235 l0 224 76 24 c129 40 357 81 383 69 4 -2 -2 -20 -12 -41z m-1291
-15 c11 -23 38 -82 61 -132 51 -111 107 -233 198 -435 l70 -155 -341 -3 c-188
-1 -347 0 -354 2 -15 6 -3 43 52 161 44 95 228 500 258 567 11 26 24 45 29 42
4 -3 17 -24 27 -47z m1370 -9 c45 -99 68 -149 166 -368 51 -113 107 -235 124
-273 17 -37 31 -70 31 -72 0 -3 -160 -5 -356 -5 l-355 0 7 22 c8 27 101 233
206 457 26 57 48 105 48 107 0 1 18 42 40 89 22 47 40 90 40 96 0 27 24 1 49
-53z m365 51 c-2 -4 6 -7 19 -7 12 0 74 -35 137 -77 l115 -77 0 -50 c0 -45 -1
-48 -13 -30 -25 38 -47 58 -102 97 -30 21 -63 48 -72 59 -18 20 -18 20 -4 -19
7 -22 19 -60 26 -85 9 -35 28 -60 81 -111 61 -58 69 -71 72 -107 2 -23 1 -42
-2 -42 -12 0 -92 81 -111 113 l-20 32 5 -60 c9 -92 12 -98 59 -163 34 -45 44
-67 41 -89 -2 -15 -4 -39 -4 -53 -1 -23 -3 -22 -27 13 -14 21 -34 56 -43 78
l-18 40 -7 -81 c-7 -76 -6 -84 24 -149 30 -64 47 -167 27 -154 -5 3 -7 -7 -5
-23 1 -15 -1 -29 -7 -30 -11 -4 -65 150 -65 187 -1 19 -2 21 -10 8 -5 -8 -11
-26 -14 -40 -2 -13 -9 -36 -15 -51 -18 -47 -15 -100 14 -203 28 -103 27 -126
-10 -131 -44 -7 -54 11 -55 103 0 49 -3 131 -6 183 -3 52 -5 108 -4 124 0 15
-4 34 -10 41 -7 9 -8 15 -1 19 6 4 8 12 5 19 -5 15 -12 85 -13 136 -1 30 -3
32 -18 20 -17 -12 -17 -12 -2 5 13 14 15 26 8 57 -5 21 -9 42 -8 46 4 22 -2
33 -13 27 -10 -6 -10 -5 -1 8 7 8 11 17 9 19 -3 2 -7 24 -10 49 -3 25 -9 59
-12 75 -8 37 -12 64 -13 90 -1 17 -3 18 -12 5 -9 -12 -10 -12 -5 3 9 29 -5 98
-18 90 -7 -4 -6 -1 1 9 7 8 10 17 7 21 -3 3 -7 18 -8 34 -2 29 -1 29 55 28 31
0 55 -3 53 -6z m-1148 -12 c3 -3 12 -3 20 0 10 4 14 -3 14 -26 l0 -32 -47 27
c-66 37 -67 39 -27 38 19 -1 37 -4 40 -7z m-1039 -22 c6 -14 7 -23 2 -19 -5 3
-9 0 -9 -5 0 -6 5 -11 11 -11 8 0 7 -5 -2 -16 -7 -9 -9 -18 -3 -22 5 -4 9 -63
9 -132 0 -69 3 -130 8 -137 4 -6 3 -14 -3 -18 -6 -3 -8 -9 -6 -13 2 -4 7 -36
11 -72 18 -174 26 -244 30 -250 1 -3 -1 -14 -5 -25 -4 -12 -2 -31 6 -46 7 -14
16 -52 19 -85 4 -32 11 -61 16 -62 5 -2 6 -8 3 -13 -3 -6 -2 -18 2 -27 4 -9 6
-30 5 -46 -2 -15 1 -26 6 -23 4 3 9 -9 9 -26 3 -63 8 -97 16 -97 5 0 3 -10 -3
-22 -11 -21 -13 -20 -24 22 -12 47 -66 170 -75 170 -3 0 -5 -17 -4 -38 2 -59
-17 -150 -33 -156 -7 -3 -13 -1 -13 5 0 6 -3 8 -7 6 -5 -3 -18 -1 -30 4 l-22
8 26 93 c14 51 27 101 30 111 7 23 -38 208 -49 201 -5 -3 -6 -9 -3 -14 3 -4
-8 -46 -25 -93 -34 -97 -36 -118 -15 -177 43 -122 20 -118 -40 7 l-46 97 22
60 c12 34 35 89 51 124 25 51 30 75 29 127 -1 62 -19 139 -20 89 -1 -11 -17
-47 -37 -80 -44 -73 -65 -121 -59 -137 10 -28 13 -117 5 -122 -5 -3 -12 4 -14
17 -9 40 -11 136 -3 131 12 -7 8 12 -5 26 -8 9 -8 11 -2 8 15 -9 24 59 9 74
-7 9 -6 10 3 5 8 -5 12 0 12 15 0 12 17 45 38 73 53 70 59 83 66 149 4 32 9
66 12 75 4 13 2 13 -8 -2 -28 -41 -67 -81 -73 -75 -14 14 18 96 51 130 24 25
42 59 59 115 14 43 25 80 25 82 0 2 -16 -14 -36 -35 -24 -25 -38 -33 -41 -25
-7 20 17 71 37 77 10 3 28 14 40 25 29 25 33 25 47 -5z m1194 -5 c-30 -17 -56
-30 -58 -30 -2 0 -2 14 -1 30 2 29 3 30 58 30 l55 0 -54 -30z m-1388 -21 c-24
-41 -43 -57 -43 -36 0 30 23 67 42 67 19 0 19 -1 1 -31z m2636 -12 c13 -36 13
-37 2 -37 -4 0 -20 17 -34 38 l-25 39 23 -5 c15 -2 28 -15 34 -35z m-2717 -5
c4 -29 -27 -211 -38 -221 -4 -3 -4 23 -1 58 5 49 1 79 -14 123 -10 31 -19 60
-19 63 0 3 15 5 34 5 29 0 34 -4 38 -28z m2825 19 c8 -1 6 -14 -7 -43 -14 -31
-20 -66 -20 -122 0 -85 -4 -95 -14 -31 -3 22 -10 66 -16 97 -7 39 -8 64 -1 76
6 11 8 21 6 24 -3 3 5 4 18 2 12 -1 27 -3 34 -3z m-2963 -68 c1 -36 13 -72 49
-142 l47 -92 0 -120 c0 -78 -4 -118 -10 -114 -5 3 -10 21 -10 39 0 49 -23 114
-64 181 -32 51 -37 68 -36 115 2 74 2 76 -11 63 -6 -6 -13 -65 -16 -132 -6
-138 -7 -136 103 -272 47 -57 55 -75 69 -144 9 -44 19 -83 21 -87 3 -5 0 -8
-5 -8 -6 0 -11 7 -11 15 0 31 -44 100 -95 150 -43 43 -53 59 -59 98 -4 26 -12
47 -18 47 -16 0 10 -168 35 -220 12 -26 61 -76 117 -120 19 -15 33 -36 34 -52
4 -34 -1 -34 -60 -7 -32 15 -51 33 -65 60 -23 45 -34 51 -24 12 19 -78 106
-213 137 -213 7 0 7 -25 -1 -59 -1 -2 -10 7 -22 20 l-20 24 6 -36 5 -36 -77
18 c-42 10 -79 16 -82 14 -2 -3 -10 0 -17 6 -7 6 -25 12 -41 13 -15 1 -44 8
-64 15 -20 6 -41 11 -45 10 -5 -1 -22 3 -38 10 -16 6 -36 9 -43 7 -8 -3 -11
-1 -8 4 5 9 -23 15 -47 11 -5 0 -8 4 -8 10 0 6 -7 8 -16 5 -8 -3 -12 -2 -9 3
3 5 -4 12 -15 16 -11 3 -20 13 -20 21 0 8 -4 13 -8 10 -4 -2 -8 3 -9 12 -3 49
-8 70 -17 65 -5 -4 -7 0 -4 8 3 8 -3 57 -14 109 -10 52 -19 107 -19 123 0 15
-3 25 -7 23 -4 -2 -6 13 -6 35 1 21 -1 39 -5 39 -3 0 -6 17 -7 37 0 21 -2 66
-2 101 -2 45 -5 61 -14 56 -7 -5 -8 -3 -2 7 12 20 12 73 0 81 -7 5 -7 8 1 8 7
0 10 6 7 14 -7 17 29 56 52 56 8 0 13 4 10 9 -3 5 0 8 7 7 18 -1 117 27 117
34 0 3 11 7 26 8 14 1 34 6 44 12 10 5 28 10 39 10 12 0 21 4 21 9 0 5 6 9 13
8 34 -1 58 4 53 12 -3 4 6 6 19 3 14 -2 25 0 25 6 0 6 10 8 22 4 12 -3 19 -1
15 5 -3 5 8 8 29 7 25 -2 33 0 28 9 -5 9 -4 9 6 1 6 -7 13 -34 14 -61z m3081
47 c-3 -5 1 -11 9 -11 9 -1 24 -2 34 -3 9 -1 23 -5 30 -9 6 -5 16 -6 21 -3 5
4 11 0 14 -6 3 -10 8 -10 21 1 14 12 17 12 14 1 -3 -15 57 -33 82 -24 8 3 11
2 7 -2 -4 -5 18 -16 49 -26 45 -14 60 -16 73 -6 13 10 14 10 5 -1 -9 -9 -6
-18 11 -35 13 -13 26 -42 30 -64 4 -23 11 -42 16 -42 6 0 8 -4 5 -9 -10 -15
27 -180 38 -174 6 4 5 -1 -3 -11 -9 -10 -11 -20 -5 -24 5 -4 10 -25 11 -47 2
-61 7 -95 13 -95 3 0 5 -19 5 -43 1 -23 4 -85 8 -138 5 -75 4 -99 -7 -115 -11
-15 -12 -22 -3 -34 10 -13 10 -13 -5 -2 -19 15 -42 7 -32 -10 4 -6 2 -8 -3 -5
-6 4 -37 -2 -69 -12 -56 -18 -163 -49 -192 -55 -8 -1 -18 -9 -23 -17 -5 -9 -9
-10 -9 -2 0 9 -12 8 -47 -3 -27 -8 -64 -17 -83 -20 -19 -3 -42 -8 -50 -11 -8
-3 -29 -7 -47 -9 -17 -2 -37 -5 -45 -6 -14 -3 -14 5 -3 35 12 29 -15 19 -33
-13 -18 -32 -54 -50 -114 -56 -73 -8 -62 41 18 76 89 38 141 77 169 128 38 67
66 140 56 146 -5 3 -14 -8 -21 -25 -14 -32 -60 -72 -98 -84 -34 -10 -66 -44
-98 -103 -39 -72 -43 -49 -5 27 17 33 31 67 31 75 0 7 26 35 58 61 92 77 139
131 146 167 25 132 33 184 29 188 -7 7 -21 -21 -28 -59 -5 -25 -25 -55 -64
-96 -37 -38 -64 -78 -76 -110 -22 -60 -39 -83 -25 -34 6 19 15 63 21 98 9 48
20 73 43 100 116 132 136 177 129 291 -3 47 -6 94 -8 105 -1 11 -3 26 -4 33 0
6 -6 12 -11 12 -6 0 -10 -26 -9 -63 1 -49 -4 -72 -22 -106 -56 -99 -68 -129
-74 -176 -14 -99 -23 -77 -21 50 l2 130 44 85 c30 58 45 101 48 137 4 43 8 53
26 56 11 2 22 5 24 6 2 0 0 -3 -3 -9z m-2815 -24 c0 -21 -29 -75 -51 -93 -16
-14 -39 -53 -54 -93 -15 -39 -29 -70 -32 -70 -7 0 5 102 18 155 8 31 20 47 57
72 44 29 62 38 62 29z m1417 -46 c-4 -36 -2 -48 7 -43 8 5 8 3 0 -8 -6 -9 -11
-87 -12 -208 -1 -106 -3 -196 -6 -198 -3 -3 -1 -15 4 -28 5 -14 5 -26 -3 -34
-8 -8 -8 -11 2 -11 7 0 9 -5 6 -11 -11 -17 -13 -59 -3 -59 5 0 5 -7 0 -17 -6
-10 -10 -63 -11 -119 -1 -55 -4 -117 -7 -138 -3 -27 -1 -35 7 -30 8 5 9 3 3
-7 -14 -23 -16 -51 -2 -43 7 5 8 3 3 -7 -5 -7 -10 -26 -12 -43 -4 -38 -18 -53
-45 -50 -13 1 -32 3 -44 3 l-21 1 0 468 c0 257 2 483 5 500 6 44 89 130 125
132 4 0 6 -22 4 -50z m-2243 32 c3 -5 -1 -9 -9 -9 -8 0 -12 4 -9 9 3 4 7 8 9
8 2 0 6 -4 9 -8z m1993 -36 l48 -44 3 -500 3 -501 -43 -3 c-24 -2 -56 1 -71 6
l-28 8 3 129 c2 71 -1 129 -6 129 -5 0 -3 7 4 15 10 12 10 15 -1 15 -10 0 -11
2 -2 8 12 8 13 29 0 49 -4 6 -4 14 1 17 13 8 14 227 0 243 -8 10 -8 12 3 8 12
-4 14 21 15 145 1 91 -2 147 -8 144 -5 -3 -4 3 4 15 11 17 11 25 0 42 -8 12
-9 18 -3 14 7 -4 11 12 11 49 0 31 4 56 9 56 5 0 31 -20 58 -44z m2529 -42 c1
-9 0 -13 -4 -10 -3 4 -7 14 -8 22 -1 9 0 13 4 10 3 -4 7 -14 8 -22z m-438 -24
c8 0 49 -17 91 -37 42 -20 79 -36 84 -35 4 1 7 -2 7 -8 0 -5 6 -10 14 -10 10
0 13 -9 11 -27 -8 -71 -8 -169 -1 -182 6 -9 5 -12 -1 -8 -7 4 -12 -7 -15 -28
-2 -20 0 -35 7 -35 6 0 7 -3 0 -8 -11 -8 -12 -10 -19 -78 -4 -27 -11 -73 -17
-102 -6 -29 -8 -60 -5 -68 3 -8 2 -13 -3 -9 -8 4 -27 -69 -23 -86 1 -4 -10
-10 -23 -13 -14 -4 -28 -7 -32 -9 -4 -1 -7 27 -8 63 0 36 -4 70 -8 77 -4 6 -3
14 3 18 6 4 9 9 6 13 -2 4 -7 41 -10 81 -4 41 -10 80 -14 85 -3 6 -5 24 -3 40
2 21 -1 26 -11 21 -10 -6 -10 -5 -2 4 7 8 8 26 2 54 -4 23 -10 56 -13 72 -3
17 -7 41 -10 55 -3 14 -8 40 -11 58 -3 17 -10 32 -15 32 -5 0 -6 6 -3 14 3 8
0 17 -6 21 -9 6 -9 9 1 15 10 7 10 12 -1 27 -12 15 -12 16 0 6 8 -7 20 -13 28
-13z m-4082 -12 c4 4 3 0 -4 -9 -6 -9 -10 -18 -8 -20 2 -2 7 -60 11 -129 3
-69 9 -138 11 -155 2 -16 7 -54 11 -82 3 -29 9 -53 12 -53 3 0 7 -18 7 -40 1
-22 5 -47 9 -57 4 -10 10 -36 12 -58 2 -22 10 -64 18 -93 17 -65 5 -74 -58
-46 -23 11 -45 18 -49 16 -5 -1 -8 3 -8 9 0 6 -9 9 -20 6 -11 -3 -18 -2 -15 3
3 4 -9 13 -26 20 -36 15 -51 47 -44 95 3 23 0 35 -8 35 -9 0 -9 2 0 8 6 4 13
41 16 84 3 42 8 82 12 89 6 8 4 10 -6 4 -11 -7 -12 -6 -3 6 6 8 12 21 12 29 2
32 10 86 16 120 4 19 8 42 10 50 13 76 30 130 42 140 7 7 14 9 14 6 0 -4 5 -4
10 -1 8 5 7 12 -2 23 -11 15 -11 15 3 5 9 -7 20 -9 25 -5z m-76 -44 c0 -8 -19
-13 -24 -6 -3 5 1 9 9 9 8 0 15 -2 15 -3z m3541 -11 c1 -10 2 -31 3 -46 4 -42
-16 -16 -21 27 -2 21 1 36 7 36 5 0 10 -8 11 -17z m-3569 -37 c2 -19 0 -32 -4
-30 -4 3 -9 -3 -9 -13 -1 -10 -2 -29 -3 -43 -1 -14 -4 -29 -8 -35 -3 -5 -5
-24 -4 -42 0 -17 -2 -29 -6 -26 -5 2 -8 -8 -8 -24 -1 -26 -5 -64 -15 -140 -2
-21 1 -33 8 -33 8 0 8 -3 2 -8 -6 -4 -12 -23 -13 -42 -1 -19 -5 -43 -8 -54 -4
-13 -2 -16 6 -11 9 6 9 3 0 -14 -8 -17 -8 -26 0 -36 8 -9 8 -15 0 -20 -6 -4
-9 -1 -8 7 2 7 -5 12 -14 12 -10 -1 -16 2 -13 6 3 4 -12 19 -33 33 -60 39
-119 101 -136 141 -11 26 -20 35 -28 30 -10 -6 -10 -5 -2 7 7 8 11 40 10 71
-1 32 2 52 6 45 5 -8 8 -6 8 7 0 23 40 96 54 96 5 0 6 3 3 6 -4 4 13 19 36 35
23 15 52 37 63 48 12 11 25 17 28 14 3 -4 6 0 6 7 0 7 3 11 6 7 3 -3 20 3 37
14 18 10 33 19 33 19 1 0 4 -15 6 -34z m4432 6 c3 -5 -1 -9 -9 -9 -8 0 -12 4
-9 9 3 4 7 8 9 8 2 0 6 -4 9 -8z m-3557 -29 c-3 -5 -8 -26 -11 -48 -4 -21 -15
-54 -26 -72 -11 -18 -21 -60 -24 -95 -3 -34 -10 -66 -16 -72 -5 -5 -10 -8 -11
-5 0 2 -3 50 -6 106 l-5 101 42 46 c23 25 47 46 52 46 5 0 7 -3 5 -7z m3618
-34 c47 -32 115 -105 115 -124 0 -8 4 -16 9 -19 5 -3 12 -23 16 -43 4 -21 12
-44 18 -52 10 -12 9 -13 -1 -7 -10 6 -13 3 -11 -10 2 -11 0 -25 -5 -33 -5 -8
-3 -16 5 -22 11 -7 10 -9 -3 -9 -18 0 -42 -33 -31 -44 3 -3 -2 -6 -11 -6 -12
0 -16 -5 -12 -16 3 -9 2 -12 -4 -9 -6 4 -24 -8 -42 -25 -17 -17 -42 -38 -54
-47 -13 -8 -21 -20 -17 -26 3 -6 1 -7 -5 -3 -11 7 -76 -27 -67 -35 2 -3 -4 -5
-13 -5 -9 -1 -26 -4 -37 -8 -11 -5 -15 -4 -9 1 18 13 41 113 50 218 1 22 5 50
9 63 3 12 7 32 10 45 3 12 8 74 10 137 2 63 4 116 5 117 1 6 39 -13 75 -38z
m-915 -145 c0 -100 -11 -140 -24 -88 -10 38 -17 205 -9 217 4 6 11 3 20 -8 9
-13 13 -51 13 -121z m-20 -178 c0 -39 -42 -196 -53 -196 -5 0 -6 48 -1 113 4
61 8 125 8 140 l1 28 22 -28 c13 -15 23 -41 23 -57z m-2735 32 c-2 -18 -4 -46
-5 -63 l-2 -30 -10 34 c-6 24 -6 42 3 62 15 37 18 36 14 -3z m-1000 -151 c4 5
5 3 1 -4 -4 -8 14 -25 49 -47 30 -20 55 -43 55 -51 0 -9 4 -14 8 -11 5 3 9 -1
9 -9 0 -8 -4 -12 -8 -9 -4 2 -7 -5 -6 -16 1 -11 4 -20 8 -20 4 0 4 -13 -1 -29
-4 -16 -6 -32 -3 -35 3 -3 7 -38 9 -78 2 -40 6 -84 10 -98 4 -14 6 -29 5 -34
-1 -5 4 -13 11 -17 10 -7 10 -9 -2 -9 -13 0 -13 -1 0 -10 10 -6 11 -10 3 -10
-9 0 -10 -7 -3 -24 5 -13 6 -27 3 -30 -4 -3 -1 -6 4 -6 6 0 10 -8 9 -17 -3
-18 19 -125 31 -153 9 -21 10 -27 12 -51 1 -12 5 -17 13 -13 6 4 8 3 5 -3 -9
-14 3 -74 13 -68 3 2 7 -2 7 -10 0 -8 -4 -12 -9 -9 -4 3 -8 0 -8 -5 0 -6 -7
-11 -16 -11 -9 0 -12 -5 -8 -12 4 -8 3 -10 -2 -5 -5 5 -10 13 -10 18 -1 5 -2
14 -3 20 0 5 -5 8 -9 5 -5 -3 -8 5 -8 17 1 13 -4 21 -12 19 -8 -1 -11 1 -9 5
8 13 -38 114 -48 106 -4 -5 -5 -3 -1 4 6 10 -8 47 -24 63 -3 3 -6 12 -8 20 -1
8 -7 24 -11 35 -11 24 -24 58 -25 65 -5 26 -30 89 -35 86 -3 -2 -7 12 -8 32
-1 20 -7 38 -13 40 -5 2 -8 7 -6 11 9 14 -11 76 -24 73 -10 -2 -11 0 -3 10 13
15 6 68 -9 68 -5 0 -7 4 -4 9 3 4 1 35 -4 67 -5 32 -13 90 -16 129 -3 38 -9
75 -12 80 -2 6 17 -11 45 -38 27 -26 53 -44 58 -40z m4819 33 c1 -17 -1 -33
-6 -36 -4 -3 -8 -22 -8 -42 0 -20 -4 -52 -9 -70 -7 -23 -7 -30 1 -26 7 5 8 2
4 -5 -14 -22 -36 -145 -30 -165 4 -13 3 -16 -6 -11 -8 5 -11 3 -8 -6 3 -8 -1
-28 -8 -45 -7 -17 -10 -34 -7 -37 3 -4 0 -13 -7 -22 -7 -8 -10 -24 -7 -35 3
-11 1 -18 -3 -15 -5 3 -12 -9 -16 -27 -11 -47 -11 -47 -46 -131 -11 -27 -20
-58 -21 -68 -1 -10 -4 -19 -8 -19 -9 0 -30 -51 -32 -78 0 -11 -4 -20 -7 -19
-3 1 -6 0 -6 -3 -1 -3 -16 -29 -33 -58 -17 -29 -31 -57 -31 -62 0 -6 -4 -10
-10 -10 -5 0 -10 5 -10 11 0 5 -5 7 -12 3 -7 -4 -8 -3 -4 4 10 17 -21 70 -73
125 -25 27 -45 56 -44 65 0 10 4 33 7 53 4 20 9 51 11 70 5 42 15 90 20 99 12
19 14 74 4 86 -9 11 -9 13 2 9 11 -4 19 15 34 77 11 46 19 89 19 96 -1 6 3 12
8 12 6 0 7 7 4 16 -3 8 -2 13 3 10 11 -7 23 52 14 67 -3 6 -1 7 5 3 6 -3 14 0
19 7 4 8 26 22 48 33 49 23 125 75 125 86 0 4 7 8 15 8 8 0 15 7 15 15 0 8 6
14 13 13 6 -2 11 3 9 10 -1 8 1 11 6 8 5 -3 20 6 32 19 27 29 31 27 34 -15z
m-1170 -215 c-11 -26 -28 -51 -39 -57 -19 -10 -19 -10 -4 8 9 10 19 33 23 49
3 17 8 37 10 45 3 8 5 26 6 40 2 23 3 23 12 -7 8 -25 7 -41 -8 -78z m-3472 56
c34 -14 62 -23 67 -21 2 1 7 -4 11 -10 4 -7 19 -13 33 -13 14 -1 23 -5 20 -9
-2 -5 5 -8 16 -8 11 0 23 -5 26 -11 4 -6 14 -8 23 -4 9 3 13 3 10 -1 -4 -4 -1
-16 7 -28 8 -11 15 -29 15 -39 0 -10 3 -16 8 -14 4 3 8 -7 9 -22 1 -15 6 -38
11 -51 5 -14 10 -27 11 -30 15 -50 32 -85 40 -83 6 2 8 -4 5 -12 -4 -8 4 -36
16 -63 12 -26 23 -60 24 -76 1 -27 -6 -34 -84 -77 -47 -26 -84 -52 -83 -58 2
-6 -3 -8 -11 -5 -18 7 -41 -22 -25 -31 6 -4 14 -3 18 2 3 5 27 22 54 37 26 15
47 32 47 37 0 5 3 8 8 7 13 -4 81 25 76 33 -2 4 9 2 25 -4 17 -6 28 -15 25
-19 -6 -9 25 -69 41 -80 6 -4 7 -8 3 -8 -9 0 41 -92 54 -101 6 -3 8 -8 7 -10
-4 -6 54 -103 63 -107 4 -2 8 -10 8 -17 0 -8 8 -18 18 -24 9 -5 16 -13 15 -18
-4 -13 80 -132 89 -127 4 3 8 -2 8 -11 0 -18 90 -131 102 -128 4 2 7 0 6 -5
-4 -14 34 -62 45 -55 5 3 7 1 3 -5 -3 -6 6 -20 20 -31 l26 -21 -45 3 c-25 1
-43 4 -41 6 6 7 -137 41 -146 36 -5 -3 -10 -2 -12 2 -1 5 -48 23 -103 41 -55
19 -106 36 -114 39 -9 4 -11 1 -7 -8 4 -8 2 -7 -6 2 -14 17 -128 72 -135 65
-6 -6 -49 39 -57 60 -6 16 -9 16 -17 4 -9 -12 -10 -12 -5 3 6 20 -12 67 -27
67 -6 0 -7 3 -4 6 3 4 1 16 -5 28 -7 11 -13 27 -14 35 -2 8 -9 18 -16 22 -7 5
-10 9 -7 9 4 0 -6 32 -22 71 -16 39 -29 77 -29 84 0 8 11 27 25 43 18 22 22
33 14 38 -7 4 -18 -1 -26 -11 -15 -22 -39 -28 -40 -11 -1 19 -47 181 -52 186
-4 3 -7 25 -9 50 -2 24 -6 47 -10 50 -4 3 -8 27 -9 53 -1 31 -8 57 -20 70 -18
21 -18 21 1 7 18 -14 18 -13 11 9 -4 13 -9 51 -10 83 -2 32 -9 66 -16 75 -8 9
-9 14 -3 10 7 -4 10 11 8 48 -2 57 0 61 38 46z m872 -74 c19 -43 31 -75 26
-72 -15 9 -70 118 -70 138 0 28 3 23 44 -66z m3431 24 c-9 -8 -36 -10 -30 -2
2 4 11 8 20 8 8 0 13 -3 10 -6z m-74 -51 c1 -16 2 -40 3 -52 4 -60 -33 -208
-69 -278 -12 -24 -13 -30 -3 -25 7 4 7 1 -2 -7 -16 -14 -57 -98 -53 -110 4
-11 -100 25 -147 51 -14 8 -25 13 -25 11 0 -2 -16 4 -35 12 -63 28 -120 48
-120 42 0 -4 -7 -1 -15 6 -8 7 -21 10 -29 7 -8 -3 -16 -1 -18 5 -2 6 -18 11
-36 12 -18 0 -32 5 -32 10 0 4 -9 6 -20 3 -10 -3 -20 -1 -22 3 -2 4 -19 10
-38 13 -34 6 -69 14 -100 23 -10 4 -6 10 15 24 17 11 44 40 60 64 27 41 42 51
68 47 4 0 7 3 7 8 0 5 10 7 22 3 16 -4 19 -2 13 9 -6 10 -5 11 4 3 9 -8 26 -7
64 3 28 7 59 13 68 13 9 0 29 10 45 22 18 14 24 16 15 5 -12 -15 -10 -15 35
-1 27 9 56 18 64 21 8 3 21 7 28 9 57 11 112 29 112 36 0 4 6 6 13 3 6 -2 32
4 57 14 63 26 70 25 71 -9z m-3826 -49 c22 -6 49 -12 60 -13 11 -2 22 -5 25
-8 10 -11 159 -42 170 -35 5 3 10 2 10 -3 0 -5 20 -12 45 -15 53 -5 83 -28 81
-60 -1 -12 3 -25 9 -29 6 -5 5 -8 -3 -8 -8 0 -10 -8 -7 -23 4 -15 1 -28 -9
-36 -9 -7 -13 -18 -9 -25 4 -6 8 -15 10 -21 1 -5 6 -23 10 -40 5 -16 9 -51 9
-77 -1 -47 6 -59 20 -36 11 17 4 112 -7 116 -6 3 -5 10 2 18 8 10 8 18 1 27
-8 9 -7 13 6 14 9 1 38 4 64 8 38 6 63 2 124 -20 104 -35 110 -39 199 -123 55
-51 69 -69 50 -62 -16 6 -46 29 -69 50 -39 38 -72 51 -136 55 -14 1 -33 3 -42
3 -9 1 -31 14 -48 28 -34 29 -48 27 -31 -4 14 -26 118 -115 159 -136 19 -10
64 -20 100 -23 90 -7 108 -9 103 -14 -2 -2 1 -14 7 -26 9 -16 9 -22 0 -25 -24
-8 -110 11 -143 32 -26 16 -35 18 -35 8 0 -7 8 -20 18 -28 40 -35 149 -101
174 -107 17 -3 31 -15 37 -32 5 -14 23 -63 40 -109 17 -46 34 -89 38 -95 4 -7
8 -18 10 -26 4 -31 26 -70 36 -64 6 3 7 1 3 -5 -9 -16 34 -113 47 -105 5 3 7
1 3 -5 -7 -12 13 -63 29 -74 5 -4 7 -8 2 -8 -4 0 0 -14 9 -32 15 -30 15 -32
-2 -45 -10 -7 -27 -14 -38 -14 -45 -3 -64 -6 -77 -14 -8 -5 -11 -4 -6 1 5 5
-31 13 -90 19 -54 6 -100 6 -102 1 -2 -4 -7 -3 -10 3 -4 6 -35 12 -68 14 -34
1 -59 5 -57 8 2 4 -16 9 -41 11 -25 3 -57 14 -72 24 -16 10 -30 18 -33 17 -3
-1 -6 15 -7 34 -1 20 -5 39 -10 42 -4 3 -10 17 -12 31 -1 14 -6 27 -10 30 -3
3 -7 16 -9 30 -2 14 -10 48 -18 75 -8 28 -17 66 -20 85 -3 19 -11 38 -18 42
-8 6 -7 8 2 8 8 0 10 5 5 13 -4 6 -8 17 -9 22 -2 16 -16 117 -20 155 -3 19 -7
46 -10 60 -3 14 -6 44 -6 68 0 35 -3 41 -14 31 -10 -8 -13 -24 -9 -53 3 -23 8
-66 11 -96 3 -30 10 -61 16 -67 7 -9 7 -13 -1 -13 -9 0 -9 -5 -1 -20 6 -11 9
-20 7 -20 -3 0 4 -39 14 -87 11 -49 22 -99 24 -113 3 -14 8 -32 11 -40 3 -8 8
-25 10 -37 2 -12 15 -54 29 -95 14 -40 25 -77 25 -81 0 -4 -16 8 -35 28 -20
19 -40 35 -46 35 -6 0 -8 4 -4 9 3 6 0 13 -8 18 -7 4 -35 34 -61 65 -27 32
-54 54 -59 51 -6 -3 -7 -1 -3 6 6 10 -60 102 -87 122 -5 3 -8 9 -8 13 1 17
-12 35 -23 29 -6 -3 -8 -3 -4 2 4 4 -1 20 -12 35 -11 16 -20 33 -20 40 0 7 -7
10 -16 6 -9 -3 -12 -2 -9 4 4 6 -7 33 -24 60 -17 28 -31 55 -31 61 0 5 -4 7
-10 4 -6 -3 -7 1 -4 9 4 9 -1 18 -10 22 -9 3 -14 10 -11 14 3 5 1 11 -5 15 -6
4 -8 10 -6 14 3 4 -4 18 -15 29 -11 12 -17 22 -15 22 3 0 1 11 -4 25 -5 14 -7
31 -4 40 7 18 81 46 213 81 65 18 98 31 94 38 -4 7 -1 6 8 -1 8 -7 20 -8 28
-4 9 6 10 11 2 15 -12 8 -122 -15 -116 -24 2 -3 -7 -5 -18 -6 -38 -2 -201 -58
-215 -74 -8 -8 -11 -10 -8 -4 3 7 -5 15 -19 18 -14 4 -24 10 -21 15 3 4 -10
45 -29 90 -19 46 -35 86 -35 91 0 4 -8 25 -17 46 -10 22 -18 44 -18 49 -1 6
-7 28 -13 50 -7 22 -12 43 -12 47 0 4 26 -1 58 -11 31 -10 75 -24 97 -30z
m2999 -5 c-3 -15 -8 -25 -11 -23 -2 3 -1 17 3 31 3 15 8 25 11 23 2 -3 1 -17
-3 -31z m-2524 -11 c27 -14 54 -34 60 -46 11 -20 10 -20 -47 -13 -32 3 -61 11
-65 18 -9 13 -11 66 -3 66 3 0 28 -11 55 -25z m3387 -10 c0 -8 -4 -12 -9 -9
-5 3 -6 10 -3 15 9 13 12 11 12 -6z m-3302 -95 c7 0 25 -16 39 -35 15 -19 24
-35 21 -35 -15 0 -85 66 -84 80 0 10 2 11 6 3 2 -7 11 -13 18 -13z m1040 11
c3 -5 2 -12 -3 -15 -5 -3 -9 1 -9 9 0 17 3 19 12 6z m1430 0 c3 -6 -5 -15 -17
-21 -21 -10 -21 -10 -6 3 10 8 15 17 11 20 -3 4 -4 7 0 7 3 0 8 -4 12 -9z
m-2508 -7 c-3 -3 -12 -4 -19 -1 -8 3 -5 6 6 6 11 1 17 -2 13 -5z m1196 -13
c24 -1 27 -5 25 -31 -1 -19 -6 -26 -12 -20 -6 6 -16 5 -28 -1 -12 -7 -18 -6
-18 1 0 8 -6 8 -20 0 -15 -8 -20 -8 -20 1 0 8 -5 7 -17 -2 -9 -8 -14 -9 -10
-2 4 6 2 13 -4 15 -7 2 -9 12 -5 23 4 16 14 20 43 18 21 -1 50 -2 66 -2z
m1217 -10 c-1 -3 -10 -17 -21 -30 -24 -29 -48 -16 -30 17 6 10 8 22 5 24 -2 3
7 3 21 1 14 -3 25 -8 25 -12z m-2253 -17 c12 -19 12 -22 -7 -27 -14 -4 -26 3
-41 25 l-21 30 27 -4 c15 -2 34 -13 42 -24z m1223 15 c0 -5 4 -8 9 -5 5 4 4
-5 -2 -18 -7 -15 -16 -21 -21 -16 -5 5 -17 5 -28 -1 -12 -6 -18 -6 -18 0 0 6
-6 8 -14 5 -17 -7 -30 12 -22 31 6 18 96 21 96 4z m368 2 c8 -1 12 -6 10 -12
-2 -6 -37 -13 -77 -15 -41 -3 -83 -10 -94 -15 -14 -8 -18 -8 -13 0 4 6 4 11 1
11 -4 0 -16 -5 -27 -11 -15 -8 -19 -8 -14 0 9 14 4 14 -28 1 -18 -6 -26 -6
-26 1 0 6 -6 7 -17 1 -19 -11 -43 7 -43 33 0 16 39 17 328 6z m44 -8 c-6 -2
-9 -10 -6 -15 4 -7 2 -8 -5 -4 -13 9 -5 26 12 25 9 0 8 -2 -1 -6z m-1859 -41
l36 -37 -35 1 c-19 1 -37 4 -39 6 -7 7 -9 68 -2 68 2 0 19 -17 40 -38z m1907
32 c0 -8 -19 -13 -24 -6 -3 5 1 9 9 9 8 0 15 -2 15 -3z m60 -4 c0 -5 -5 -10
-11 -10 -5 0 -7 5 -4 10 3 6 8 10 11 10 2 0 4 -4 4 -10z m335 1 c3 -5 2 -12
-3 -15 -5 -3 -9 1 -9 9 0 17 3 19 12 6z m-1674 -14 c37 -1 65 -5 62 -9 -7 -13
12 -9 26 5 9 8 12 8 7 0 -4 -8 15 -12 71 -13 138 -2 232 -8 243 -15 5 -3 10
-1 10 4 0 8 7 7 23 0 12 -7 29 -15 37 -19 8 -4 15 -13 15 -21 0 -8 5 -17 10
-21 7 -5 7 -8 0 -8 -6 0 -9 -53 -7 -145 2 -80 0 -145 -3 -145 -3 0 -34 9 -68
19 -34 11 -73 22 -87 26 -25 6 -25 6 5 -22 17 -15 43 -47 58 -71 16 -24 44
-53 63 -64 19 -11 34 -28 34 -38 0 -16 -6 -18 -37 -13 -46 7 -82 38 -135 118
-58 86 -85 112 -160 156 -78 46 -102 50 -65 11 15 -15 40 -56 57 -89 29 -61
41 -73 110 -110 52 -27 85 -52 78 -58 -7 -8 -184 51 -213 69 -13 9 -33 50 -54
109 -30 89 -73 158 -121 193 -8 7 -26 21 -39 33 -30 26 -35 26 -20 0 6 -12 20
-53 30 -93 25 -90 45 -130 78 -149 39 -23 75 -56 68 -63 -5 -6 -129 60 -169
90 -12 9 -20 38 -28 102 -11 96 -21 129 -56 185 -13 21 -19 40 -14 45 5 5 35
8 67 6 32 -1 88 -4 124 -5z m1484 -2 c23 1 45 4 50 7 6 4 18 0 28 -7 18 -13
17 -15 -7 -54 -28 -44 -40 -86 -57 -198 l-11 -72 -66 -40 c-37 -22 -80 -45
-97 -51 l-30 -10 35 30 c77 66 97 89 103 111 18 76 40 147 53 167 23 35 7 26
-61 -33 -60 -53 -100 -115 -120 -185 -4 -14 -16 -45 -26 -70 -18 -42 -24 -47
-92 -71 -150 -54 -159 -56 -151 -36 3 8 38 31 79 51 71 36 76 41 105 100 16
35 42 75 56 90 15 14 24 29 21 32 -12 12 -157 -78 -185 -114 -15 -20 -30 -38
-34 -40 -5 -2 -8 -8 -8 -14 0 -16 -91 -127 -109 -132 -9 -3 -32 -8 -51 -11
-19 -3 -48 -8 -64 -11 -21 -5 -27 -3 -24 7 5 14 31 30 83 49 19 7 46 34 75 75
25 36 53 67 63 71 9 3 17 10 17 15 0 6 -8 8 -17 5 -10 -3 -48 -15 -85 -26 -43
-13 -77 -31 -94 -50 -25 -26 -53 -33 -39 -10 13 20 14 90 2 90 -9 0 -9 2 0 8
14 9 21 201 8 221 -5 9 -4 12 2 8 6 -4 13 6 16 22 5 22 13 31 34 35 38 7 161
19 200 19 18 0 30 4 26 10 -3 5 2 6 13 0 11 -5 35 -8 54 -6 43 4 162 10 213
12 28 1 36 4 31 14 -6 9 -4 9 7 1 8 -5 32 -10 54 -9z m376 -8 c-10 -9 -11 -8
-5 6 3 10 9 15 12 12 3 -3 0 -11 -7 -18z m-2133 -19 c12 -16 62 -208 54 -208
-4 0 -27 21 -53 46 -43 42 -46 49 -42 87 8 86 18 103 41 75z m1949 4 c7 -5 16
-34 19 -65 6 -57 6 -58 -32 -94 -56 -52 -136 -114 -141 -109 -7 7 24 59 62
101 20 22 38 49 40 60 4 19 14 90 15 108 0 9 22 9 37 -1z m-3341 -27 c-1 -8
-5 -17 -8 -21 -5 -4 -4 16 1 34 3 9 9 -1 7 -13z m1294 11 c0 -2 7 -21 15 -42
l16 -39 -36 39 c-41 45 -41 46 -15 46 11 0 20 -2 20 -4z m1030 -27 c0 -23 -4
-27 -17 -22 -10 3 -24 11 -31 16 -7 5 -15 7 -19 4 -7 -7 73 -194 92 -215 9
-10 21 6 53 76 49 105 63 142 56 142 -3 0 -18 -7 -34 -15 -31 -16 -41 -10 -36
21 2 15 12 19 50 20 l48 1 -5 -158 c-3 -87 -8 -163 -12 -169 -3 -5 0 -10 7
-10 9 0 9 -3 -2 -10 -13 -9 -13 -10 0 -10 9 0 11 -3 5 -8 -5 -4 -11 -24 -13
-45 -3 -44 -35 -93 -72 -111 -47 -23 -80 -6 -146 73 l-62 74 -2 182 c0 99 3
184 7 188 4 5 36 7 70 6 62 -2 63 -3 63 -30z m2077 16 c0 -8 -4 -12 -9 -9 -5
3 -6 10 -3 15 9 13 12 11 12 -6z m-3157 -15 c6 -11 9 -20 7 -20 -2 0 -12 9
-22 20 -10 11 -13 20 -7 20 6 0 16 -9 22 -20z m2166 -28 c-20 -20 -22 -1 -3
28 10 18 12 18 15 4 2 -9 -3 -24 -12 -32z m84 33 c-7 -8 -17 -15 -22 -15 -6 0
-5 7 2 15 7 8 17 15 22 15 6 0 5 -7 -2 -15z m180 -20 c8 -1 22 -5 30 -8 36
-13 128 -32 155 -31 17 1 24 -1 16 -4 -8 -2 23 -15 68 -29 45 -13 87 -20 93
-17 6 4 8 2 4 -4 -3 -6 4 -13 16 -17 13 -4 41 -15 63 -25 23 -10 50 -20 60
-22 25 -4 65 -38 65 -55 0 -14 -55 -118 -76 -143 -7 -8 -14 -22 -16 -30 -2 -8
-13 -26 -25 -40 -13 -13 -23 -28 -23 -32 0 -7 -99 -145 -136 -191 -8 -10 -12
-22 -9 -27 4 -6 -1 -7 -11 -3 -13 5 -16 3 -11 -10 3 -9 1 -19 -5 -23 -7 -5 -8
-2 -4 7 4 8 1 6 -8 -5 -8 -10 -31 -36 -50 -57 -20 -21 -35 -43 -34 -48 2 -5 0
-8 -4 -8 -11 3 -58 -45 -53 -54 3 -4 -8 -10 -25 -14 -18 -4 -27 -11 -24 -17 4
-7 2 -8 -4 -4 -18 11 -83 -4 -75 -18 4 -8 3 -8 -7 1 -8 8 -22 8 -44 1 -59 -17
-71 -20 -99 -19 -16 1 -26 -2 -24 -6 3 -5 -11 -7 -31 -7 -21 1 -41 -1 -47 -5
-15 -9 -69 -8 -76 2 -3 5 0 26 8 48 7 22 11 45 8 50 -4 5 -2 9 4 9 5 0 10 8
10 18 0 9 7 48 15 85 9 38 18 83 21 100 2 18 6 43 9 57 3 14 7 41 10 60 2 19
7 42 10 50 3 8 7 45 10 83 3 37 7 71 10 75 2 4 5 27 7 52 4 61 13 76 92 149
37 35 67 70 67 77 0 21 -14 17 -40 -11 -28 -30 -56 -33 -56 -6 0 11 4 17 8 15
7 -5 11 18 6 32 -2 3 8 12 22 20 23 13 51 13 130 -1z m-182 -53 c-15 -38 -38
-42 -38 -7 0 17 7 28 23 34 29 11 29 11 15 -27z m-68 -15 c0 -16 -9 -28 -25
-35 -13 -6 -38 -24 -56 -39 -40 -36 -89 -67 -89 -56 0 4 18 21 39 37 22 16 59
48 82 72 24 24 44 44 46 44 2 0 3 -11 3 -23z m937 -44 c-8 -90 -15 -107 -43
-96 -16 6 -14 82 1 80 6 -1 10 8 9 20 0 12 3 20 7 17 4 -2 10 5 14 16 12 37
17 20 12 -37z m-2858 -47 c25 -41 29 -68 6 -45 -14 13 -39 79 -30 79 2 0 13
-15 24 -34z m-1426 -21 c-7 -21 -12 -19 -10 4 0 11 5 18 9 15 4 -3 5 -11 1
-19z m4201 -23 c3 -5 -1 -9 -9 -9 -8 0 -12 4 -9 9 3 4 7 8 9 8 2 0 6 -4 9 -8z
m-859 -25 c-4 -13 -7 -30 -8 -38 -2 -8 -5 -18 -8 -24 -3 -5 -5 -17 -4 -25 0
-8 -5 -21 -12 -28 -7 -7 -13 -20 -13 -27 0 -8 -18 -51 -40 -96 -22 -45 -37
-87 -33 -93 3 -6 3 -8 -1 -4 -5 4 -33 -44 -64 -105 -31 -62 -60 -115 -65 -118
-5 -4 -6 -12 -2 -19 5 -8 4 -11 -1 -7 -5 3 -17 -7 -26 -23 -14 -24 -14 -29 -2
-34 10 -4 20 7 32 32 9 20 20 39 23 42 17 13 69 123 63 133 -4 7 -3 8 1 4 11
-10 47 62 38 76 -3 5 -1 7 5 3 10 -6 28 30 24 47 -1 4 3 7 9 7 6 0 8 7 5 16
-3 8 -2 12 3 9 9 -5 22 20 20 39 -1 12 23 26 34 19 5 -3 3 -9 -4 -13 -10 -7
-10 -12 -1 -23 7 -7 9 -17 5 -21 -4 -3 -8 -12 -9 -19 -1 -7 -5 -28 -8 -47 -15
-82 -19 -106 -20 -127 -1 -13 -5 -23 -10 -23 -5 0 -7 -3 -3 -6 3 -3 -1 -23 -8
-44 -15 -41 -27 -101 -29 -137 -1 -13 -4 -23 -7 -23 -3 0 -11 -11 -17 -24 -8
-17 -7 -27 1 -36 8 -8 4 -8 -11 1 -15 9 -25 10 -30 4 -4 -5 -34 -11 -67 -13
-33 -2 -70 -5 -82 -7 -13 -2 -23 -2 -23 1 0 3 16 30 35 60 40 61 40 64 21 64
-7 0 -21 -15 -29 -33 -9 -18 -27 -45 -40 -59 -14 -15 -23 -29 -20 -31 2 -3 0
-8 -6 -12 -6 -3 -11 -2 -11 3 0 4 -12 9 -27 9 -56 2 -120 10 -130 16 -6 4 -22
6 -34 6 -13 -1 -51 1 -84 5 -33 4 -74 9 -92 11 -39 5 -52 -10 -23 -25 15 -8
20 -8 20 2 0 8 3 9 8 3 11 -15 42 -18 42 -3 0 10 2 10 8 1 4 -6 31 -13 60 -14
29 -2 49 -6 45 -10 -9 -9 -92 -21 -145 -22 -21 0 -35 -4 -32 -8 3 -5 -2 -6
-10 -3 -21 8 -116 11 -116 3 0 -3 -12 -4 -26 -1 -21 4 -44 34 -44 57 0 2 38 2
83 0 68 -3 84 -1 84 11 0 11 -16 14 -66 15 -36 1 -69 1 -73 0 -5 0 -8 8 -8 19
0 11 -5 20 -11 20 -6 0 -7 5 -2 13 12 20 13 40 0 56 -9 12 -9 13 1 7 9 -5 12
1 12 21 0 15 1 46 3 68 3 22 5 57 6 78 1 50 14 40 35 -27 20 -63 25 -65 116
-53 68 9 115 26 72 27 -37 0 -82 29 -149 93 -81 77 -82 96 -4 57 44 -23 72
-30 112 -29 67 0 187 21 214 37 16 9 5 11 -61 12 -67 0 -89 4 -129 26 -43 23
-54 24 -100 16 -29 -4 -60 -5 -71 -1 -20 8 -19 9 36 14 19 2 65 10 101 18 55
12 72 12 97 1 44 -18 141 -37 184 -35 66 2 248 71 248 93 0 11 -13 10 -51 -6
-36 -14 -92 -15 -172 -2 -38 7 -57 4 -102 -14 -31 -13 -62 -19 -72 -15 -13 5
6 15 63 35 45 15 91 33 102 39 13 7 63 8 145 4 l125 -6 59 33 c73 41 133 88
133 104 0 9 -15 6 -48 -11 -35 -17 -66 -24 -121 -25 -64 -2 -81 -6 -128 -35
-31 -18 -65 -33 -77 -33 -13 0 3 14 47 40 37 21 81 48 96 60 18 12 52 22 88
25 124 12 146 14 151 20 10 10 12 5 7 -18z m913 -5 c15 12 16 11 3 -4 -7 -10
-11 -29 -9 -43 3 -13 2 -26 -2 -27 -3 -2 -13 -28 -22 -58 -9 -30 -25 -79 -36
-108 -12 -31 -16 -50 -9 -46 7 3 5 0 -4 -8 -8 -7 -24 -35 -35 -63 -36 -96 -87
-179 -121 -196 -18 -9 -30 -19 -27 -22 3 -3 -4 -3 -17 0 -17 5 -20 3 -14 -7 5
-7 4 -11 -1 -8 -5 3 -49 -4 -99 -17 -49 -12 -92 -21 -94 -19 -2 2 2 10 8 18 7
8 9 21 5 27 -4 7 -3 9 3 6 10 -7 24 7 83 83 19 25 43 54 53 65 22 24 132 189
129 193 -2 1 4 9 12 17 8 8 40 59 72 112 65 111 83 132 97 108 7 -14 11 -14
25 -3z m-2776 -33 c18 -12 58 -37 88 -55 37 -23 48 -34 35 -34 -12 0 -45 16
-74 35 -30 19 -58 32 -63 29 -4 -3 -11 2 -14 10 -3 9 -9 14 -13 11 -4 -2 -8 2
-8 10 0 20 10 19 49 -6z m-1443 -3 c9 -11 9 -16 -1 -22 -7 -4 -10 -4 -6 1 4 4
3 14 -3 22 -6 7 -9 13 -6 13 2 0 10 -6 16 -14z m4275 -18 c-3 -4 1 -8 8 -8 18
-1 66 -70 73 -106 3 -16 7 -36 9 -44 2 -8 1 -19 -3 -25 -3 -5 -6 -12 -6 -15
-4 -25 -23 -62 -51 -96 -18 -23 -30 -45 -26 -49 4 -3 1 -5 -7 -3 -8 2 -20 -8
-27 -20 -6 -13 -13 -19 -16 -12 -2 7 -10 5 -23 -7 -17 -16 -108 -63 -120 -63
-2 0 -3 13 -2 29 1 16 5 27 9 25 9 -6 29 56 21 69 -4 6 -1 7 7 2 10 -6 12 -4
6 11 -4 10 -4 15 0 11 5 -4 18 18 30 50 16 44 19 61 10 72 -8 11 -8 13 2 7 12
-7 20 4 26 36 2 7 6 20 9 28 17 45 35 109 31 112 -2 2 7 4 21 4 13 0 21 -4 19
-8z m-2542 -127 c42 -17 84 -31 93 -31 9 0 13 -5 10 -10 -9 -14 -53 -7 -95 15
-25 13 -45 15 -79 10 -129 -19 -205 -10 -214 26 -4 15 3 19 52 21 109 7 155 0
233 -31z m1554 24 c-1 -8 -5 -17 -8 -21 -5 -4 -4 16 1 34 3 9 9 -1 7 -13z
m-3180 -57 c3 -4 -1 -5 -10 -4 -8 1 -18 5 -22 8 -3 4 1 5 10 4 8 -1 18 -5 22
-8z m2024 -18 l25 -21 -35 3 c-24 2 -36 9 -38 21 -5 23 17 21 48 -3z m-1964
-16 c1 -9 0 -13 -4 -10 -3 4 -7 14 -8 22 -1 9 0 13 4 10 3 -4 7 -14 8 -22z
m1457 -29 c32 -7 70 -11 85 -9 63 12 116 25 150 39 19 9 43 13 53 10 19 -6 33
-9 97 -20 23 -4 42 -11 42 -16 0 -5 -17 -7 -38 -3 -28 4 -48 0 -79 -15 -51
-27 -73 -32 -150 -32 -69 0 -85 -15 -25 -24 20 -4 59 -11 85 -16 70 -13 144
-11 176 6 27 14 29 13 33 -9 8 -41 -63 -106 -132 -121 -33 -7 -34 -8 -11 -16
13 -5 46 -12 75 -15 65 -7 79 -11 71 -24 -3 -5 -1 -10 5 -10 7 0 8 -6 1 -19
-6 -10 -8 -21 -5 -23 3 -3 6 -27 8 -52 2 -37 -1 -50 -16 -60 -10 -7 -16 -15
-14 -17 2 -2 -23 -4 -57 -5 -108 -1 -242 -16 -249 -27 -4 -6 -4 -15 -1 -21 3
-5 1 -6 -6 -2 -6 4 -9 12 -5 17 6 11 -35 46 -48 42 -4 -2 -4 5 -1 14 4 10 2
14 -4 10 -5 -3 -10 0 -10 7 0 7 -14 43 -31 79 -18 36 -32 71 -32 76 0 6 -4 11
-10 11 -5 0 -9 3 -8 8 4 15 -26 81 -34 75 -5 -3 -8 1 -6 8 5 23 -24 99 -35 92
-6 -3 -7 -1 -4 4 4 6 0 30 -8 53 -8 23 -15 46 -15 51 0 5 21 -1 47 -12 26 -11
74 -26 106 -34z m480 -2 c-7 -2 -19 -2 -25 0 -7 3 -2 5 12 5 14 0 19 -2 13 -5z
m42 -38 c-50 -44 -77 -56 -72 -33 2 14 95 78 112 78 5 0 -12 -20 -40 -45z
m195 19 c0 -12 -4 -12 -19 -2 -11 7 -18 15 -15 20 7 11 34 -3 34 -18z m-63 3
c36 -20 66 -65 60 -93 -2 -13 -1 -26 3 -29 8 -5 6 -33 -5 -58 -4 -9 -5 -33 -3
-52 2 -19 1 -35 -2 -35 -4 0 -7 -26 -7 -59 -1 -95 -6 -98 -117 -97 -60 1 -100
6 -107 13 -8 8 -14 54 -17 116 -4 100 -3 106 27 168 35 71 54 96 91 121 30 20
48 21 77 5z m-2113 -35 c3 -5 -1 -9 -9 -9 -8 0 -12 4 -9 9 3 4 7 8 9 8 2 0 6
-4 9 -8z m56 2 c0 -8 -19 -13 -24 -6 -3 5 1 9 9 9 8 0 15 -2 15 -3z m26 -69
c-1 -8 -5 -17 -8 -21 -5 -4 -4 16 1 34 3 9 9 -1 7 -13z m-3 -70 c-7 -21 -12
-19 -10 4 0 11 5 18 9 15 4 -3 5 -11 1 -19z m3915 -71 c-11 -19 -25 -34 -30
-34 -6 0 -7 -7 -4 -16 3 -8 2 -13 -3 -10 -5 3 -24 -11 -43 -32 -19 -20 -61
-62 -94 -92 -39 -37 -58 -62 -58 -77 1 -12 -2 -20 -7 -17 -4 2 -6 11 -2 19 6
17 -12 21 -22 5 -8 -14 -25 -13 -25 2 0 6 3 8 6 5 8 -8 54 54 82 110 11 22 28
45 36 52 18 15 22 36 4 25 -7 -5 -8 -3 -4 5 5 7 10 10 13 7 3 -3 21 8 40 24
18 17 38 30 44 30 6 0 7 4 4 10 -4 6 1 7 11 3 11 -4 15 -3 11 4 -5 7 1 9 15 5
13 -3 19 -1 15 5 -5 7 0 9 12 6 19 -5 19 -6 -1 -39z m-3744 8 c3 -5 -1 -9 -9
-9 -8 0 -12 4 -9 9 3 4 7 8 9 8 2 0 6 -4 9 -8z m21 -21 c-5 -9 52 -33 85 -36
8 -1 26 -7 38 -14 13 -7 26 -10 29 -7 4 3 11 2 17 -3 11 -9 101 -38 144 -47
13 -3 49 -12 80 -20 50 -13 86 -21 128 -28 6 -1 24 -10 39 -20 15 -10 34 -19
41 -20 7 -1 17 -6 21 -11 4 -4 2 -5 -4 -1 -19 10 -16 1 11 -38 13 -19 27 -32
31 -28 5 4 5 1 1 -5 -4 -7 0 -23 8 -35 14 -20 14 -24 -1 -40 -15 -16 -14 -18
10 -27 28 -11 39 -25 98 -119 25 -40 43 -60 51 -56 7 5 9 2 5 -9 -3 -8 1 -21
9 -27 8 -7 14 -18 14 -25 0 -8 3 -15 8 -18 4 -2 0 -2 -8 1 -8 2 -22 5 -30 6
-8 0 -21 7 -29 14 -7 7 -20 11 -28 8 -8 -3 -12 -2 -9 3 8 12 -22 23 -37 14 -7
-3 -9 -3 -5 2 10 11 -101 67 -115 58 -6 -3 -7 -1 -3 5 3 6 -1 15 -10 20 -26
15 -10 53 37 86 30 21 38 31 29 40 -8 8 -23 -2 -57 -37 -41 -43 -50 -48 -77
-43 -16 4 -40 16 -53 28 -13 12 -23 18 -23 15 0 -6 -104 64 -137 93 -7 5 -14
10 -17 10 -8 0 -57 44 -170 152 -72 69 -114 102 -118 95 -5 -7 -7 -1 -6 13 2
18 -2 25 -14 25 -9 0 -20 4 -25 9 -4 5 -3 6 3 3 7 -4 17 0 24 8 14 16 25 20
15 6z m-69 -23 c3 -4 -1 -5 -10 -4 -8 1 -18 5 -22 8 -3 4 1 5 10 4 8 -1 18 -5
22 -8z m3577 -81 c-15 -29 -26 -56 -25 -60 1 -5 -2 -6 -8 -2 -5 3 -10 2 -10
-3 0 -6 -16 -27 -35 -48 -19 -22 -35 -43 -35 -48 0 -5 -11 -19 -24 -31 -14
-13 -22 -26 -19 -29 4 -3 2 -6 -4 -6 -15 0 -98 -79 -95 -90 1 -6 -1 -9 -5 -8
-15 3 -43 -14 -38 -22 3 -5 0 -12 -6 -16 -8 -4 -9 -3 -5 4 11 18 -8 14 -30 -6
-51 -47 -101 -45 -128 5 -8 15 -28 41 -45 56 -33 30 -37 42 -21 52 6 4 7 11 4
17 -4 6 -2 8 4 4 6 -3 23 6 39 21 64 62 119 110 145 127 15 10 26 22 23 26 -3
4 1 7 8 7 12 -2 107 41 117 52 3 3 12 8 20 10 8 2 45 11 83 21 37 10 67 15 67
12 0 -3 5 -1 11 5 6 6 17 9 25 6 10 -4 7 -17 -13 -56z m-3498 4 c3 -5 2 -12
-3 -15 -5 -3 -9 1 -9 9 0 17 3 19 12 6z m41 -77 c1 -9 0 -13 -4 -10 -3 4 -7
14 -8 22 -1 9 0 13 4 10 3 -4 7 -14 8 -22z m57 2 c7 4 9 4 5 -1 -7 -7 62 -75
106 -104 12 -8 26 -19 31 -25 18 -20 83 -66 93 -66 6 0 12 -4 14 -8 2 -5 42
-35 90 -67 48 -33 86 -61 84 -63 -2 -1 0 -18 4 -37 l8 -34 -32 16 c-17 8 -43
24 -57 34 -14 10 -29 16 -33 14 -3 -3 -4 -2 -1 2 3 3 -14 20 -38 37 -23 17
-45 36 -50 43 -4 7 -14 10 -23 6 -8 -3 -14 -2 -12 3 4 12 -205 219 -217 216
-5 -2 -7 0 -3 4 4 4 3 13 -3 20 -6 7 -7 18 -3 25 5 8 9 7 16 -5 5 -9 15 -13
21 -10z m3031 3 c-47 -53 -77 -83 -69 -69 8 13 6 13 -8 1 -9 -7 -14 -17 -11
-22 3 -5 -1 -9 -8 -9 -7 0 -25 -10 -40 -23 -14 -12 -35 -28 -46 -36 -11 -8
-18 -21 -15 -30 3 -10 2 -12 -4 -5 -4 7 -19 14 -33 15 -14 2 -27 6 -30 9 -3 4
-32 17 -65 31 -49 21 -61 31 -63 52 -2 18 2 27 18 32 11 3 18 9 16 13 -2 4 12
7 32 8 21 1 49 4 63 7 15 3 52 8 83 12 31 4 56 11 56 16 0 5 6 6 13 3 7 -2 31
0 52 5 22 5 49 9 59 10 19 1 19 1 0 -20z m-2488 -8 c-3 -4 20 -11 52 -15 82
-9 132 -17 172 -25 20 -5 46 -4 58 0 16 6 21 5 16 -3 -5 -7 2 -9 20 -6 55 11
3 -19 -79 -45 -110 -35 -126 -37 -147 -26 -13 7 -18 6 -18 -3 0 -7 -6 -2 -13
12 -8 14 -19 24 -26 22 -7 -1 -10 2 -7 7 4 5 0 15 -7 23 -21 20 -37 55 -30 62
9 9 15 7 9 -3z m998 -3 c-3 -4 -11 -5 -19 -1 -21 7 -19 12 4 10 11 0 18 -5 15
-9z m-181 -22 c3 3 38 6 79 7 72 2 73 2 73 -23 l0 -25 -128 0 c-71 0 -131 3
-134 8 -2 4 -8 5 -12 3 -4 -3 -13 -1 -21 5 -12 7 -11 9 5 10 40 2 80 10 89 19
5 5 16 5 26 0 10 -5 20 -7 23 -4z m404 -3 c0 -27 -17 -43 -46 -43 -15 0 -33
-6 -40 -12 -10 -11 -11 -9 -5 5 5 15 3 16 -20 7 -17 -6 -26 -6 -26 1 0 6 -7 6
-20 -1 -14 -8 -20 -8 -20 0 0 6 -4 9 -9 6 -5 -3 -14 1 -21 9 -7 8 -17 12 -23
8 -6 -3 -7 -1 -3 6 4 6 11 9 16 6 4 -3 10 2 14 10 4 12 26 15 104 15 87 0 99
-2 99 -17z m-680 -41 c17 0 41 -6 53 -12 16 -9 25 -8 38 2 15 12 16 11 3 -5
-13 -16 -13 -20 0 -28 8 -5 10 -9 6 -9 -4 0 -3 -9 3 -20 6 -11 16 -17 22 -14
7 4 8 3 4 -4 -6 -10 54 -115 75 -132 3 -3 10 -14 16 -24 10 -18 43 -32 43 -19
0 3 -17 28 -37 56 -37 51 -54 78 -93 150 l-20 37 82 1 c46 1 86 1 89 1 4 -1
39 -2 78 -3 89 -2 81 15 96 -209 3 -52 8 -123 10 -158 2 -35 7 -67 10 -72 11
-17 -25 -3 -56 23 -18 14 -36 24 -41 21 -5 -3 -8 -2 -7 3 4 21 -2 33 -18 33
-9 0 -14 3 -10 6 3 3 -3 15 -13 27 -10 12 -28 33 -40 46 -20 24 -50 37 -50 22
0 -14 36 -41 45 -34 4 5 5 3 1 -4 -10 -18 117 -159 134 -148 6 4 7 -1 3 -11
-4 -11 -2 -15 4 -11 5 3 16 -5 23 -18 7 -14 17 -25 22 -25 4 0 8 -5 8 -11 0
-6 -9 -9 -20 -6 -11 3 -20 1 -20 -4 0 -5 -5 -9 -12 -9 -6 0 -9 3 -5 6 3 4 -31
19 -75 35 -45 15 -84 26 -87 24 -2 -3 -11 1 -20 9 -9 8 -18 14 -21 14 -3 0
-23 7 -45 16 -22 9 -44 16 -49 15 -5 0 -12 3 -15 8 -3 4 -33 21 -66 37 -33 16
-98 54 -144 83 -58 37 -87 51 -94 44 -7 -7 -4 -13 9 -17 10 -4 21 -10 24 -14
17 -20 220 -134 220 -123 0 4 4 3 8 -2 8 -13 122 -68 140 -68 6 0 12 -3 12 -7
0 -3 24 -14 53 -24 64 -23 75 -32 58 -48 -9 -9 -12 -9 -7 -1 10 18 -18 22 -32
4 -9 -11 -12 -12 -10 -2 2 7 -4 15 -12 17 -53 11 -75 15 -110 17 -22 1 -40 6
-40 10 0 5 -8 7 -17 6 -10 -1 -21 0 -25 1 -14 4 -22 6 -63 15 -49 11 -47 10
-65 17 -33 13 -106 30 -127 30 -13 0 -21 4 -18 9 3 4 -8 15 -25 24 -16 8 -30
12 -30 8 0 -4 -7 3 -16 15 -8 12 -20 19 -26 16 -6 -4 -8 -2 -4 4 3 6 2 14 -4
17 -6 4 -29 32 -52 63 -23 31 -46 60 -51 63 -5 3 -8 8 -6 10 1 2 -11 28 -28
57 -19 33 -33 49 -36 40 -4 -10 -6 -10 -6 0 -1 7 6 15 14 18 8 4 12 11 8 17
-3 6 -1 7 6 3 6 -4 20 -2 29 6 15 11 15 11 5 -3 -11 -13 -6 -20 30 -46 23 -17
55 -42 71 -56 16 -14 41 -31 55 -39 14 -7 31 -20 38 -28 8 -11 15 -12 22 -4
11 10 -17 32 -150 125 -21 15 -35 29 -32 33 4 3 2 6 -4 6 -18 0 -3 36 15 37
22 2 106 26 112 33 3 3 11 5 18 6 6 1 21 2 33 3 11 0 18 4 16 9 -3 4 9 7 26 8
89 2 118 8 112 23 -4 14 -3 14 7 0 7 -9 27 -16 45 -17z m1231 -6 c30 1 40 -2
34 -10 -5 -6 -23 -29 -40 -52 -17 -23 -29 -44 -25 -48 3 -3 -1 -6 -10 -6 -9 0
-17 -4 -17 -8 0 -5 -17 -27 -39 -50 -25 -26 -35 -44 -29 -50 7 -7 5 -10 -5 -9
-8 1 -55 -36 -104 -83 -89 -86 -132 -119 -223 -176 -28 -17 -47 -34 -43 -38 4
-4 0 -4 -8 -1 -9 3 -26 -5 -42 -19 -21 -19 -28 -22 -37 -11 -6 7 -9 24 -6 37
3 12 7 43 10 68 2 25 7 56 10 70 5 24 13 68 20 117 2 14 -1 20 -8 16 -8 -5 -8
-3 0 8 6 8 14 31 17 51 5 34 4 36 -12 26 -11 -6 -18 -23 -18 -37 1 -35 -11
-125 -27 -209 -7 -37 -12 -82 -12 -99 1 -17 -2 -29 -5 -27 -4 2 -10 -3 -13
-11 -4 -13 -10 -14 -26 -5 -11 6 -20 8 -20 5 0 -3 -11 5 -24 17 -13 13 -22 26
-19 30 2 4 -5 12 -14 18 -13 8 -14 10 -2 7 12 -4 14 1 11 24 -2 16 -7 27 -11
25 -3 -2 -6 19 -7 47 -1 93 -8 202 -13 211 -2 5 -5 28 -5 50 -1 23 -5 46 -9
53 -4 6 -3 14 3 18 6 4 8 11 5 16 -7 11 -3 11 95 13 77 1 96 -6 102 -40 2 -10
8 -22 13 -26 7 -5 6 -8 0 -8 -6 0 -12 -17 -13 -37 -3 -34 -1 -36 12 -23 8 8
16 35 18 60 2 36 0 44 -12 42 -8 -2 -11 0 -7 5 5 4 14 8 20 8 7 1 11 5 10 10
-1 6 20 10 45 10 26 -1 50 4 54 10 5 6 8 6 8 0 0 -14 161 -6 179 8 12 9 13 9
7 0 -9 -16 -1 -16 25 -3 13 8 19 7 19 0 0 -6 4 -8 10 -5 5 3 34 6 65 6 44 1
55 4 56 18 0 14 1 14 7 0 5 -11 19 -15 50 -13z m127 4 c-3 -5 14 -14 37 -20
24 -6 49 -13 57 -16 7 -2 21 1 30 8 13 10 14 10 4 -2 -9 -9 -9 -17 -2 -26 6
-8 5 -26 -6 -58 -9 -26 -13 -52 -9 -58 4 -6 3 -8 -3 -5 -6 4 -19 -13 -29 -36
-25 -56 -113 -157 -137 -157 -4 0 -6 -4 -2 -9 3 -5 0 -13 -6 -17 -8 -5 -9 -3
-4 6 4 7 4 11 -1 8 -5 -2 -24 -10 -41 -17 -18 -7 -33 -17 -33 -22 0 -4 -7 -5
-17 -2 -12 5 -14 3 -8 -7 5 -8 4 -11 -2 -7 -12 8 -83 -13 -83 -24 0 -5 -8 -5
-17 -2 -13 5 -15 3 -9 -13 5 -15 4 -16 -5 -7 -11 11 -19 11 -56 -4 -10 -3 -22
-7 -28 -8 -5 0 -9 -5 -8 -11 1 -5 -14 -9 -33 -8 -22 1 -37 -4 -44 -15 -5 -9
-10 -11 -10 -6 0 8 -17 8 -54 1 -33 -6 -52 -14 -49 -21 3 -5 0 -4 -8 3 -12 11
-11 15 5 24 10 5 25 19 34 29 9 10 22 19 28 19 15 0 37 27 27 32 -4 3 -2 3 5
2 11 -3 51 28 112 85 8 8 15 19 15 25 0 6 7 11 15 11 8 1 13 7 12 15 -2 8 0
12 4 8 10 -11 35 12 27 26 -3 6 -3 8 1 4 8 -7 69 42 62 50 -3 2 8 16 23 31 16
14 54 60 85 101 37 49 69 79 89 87 40 15 39 15 32 3z m-885 -6 c0 -8 -19 -13
-24 -6 -3 5 1 9 9 9 8 0 15 -2 15 -3z m1070 -4 c0 -5 -2 -10 -4 -10 -3 0 -8 5
-11 10 -3 6 -1 10 4 10 6 0 11 -4 11 -10z m44 -57 c9 4 16 3 16 -2 0 -9 80
-45 93 -42 17 3 -36 -61 -57 -69 -11 -4 -38 -20 -59 -34 -21 -14 -51 -33 -68
-41 -17 -9 -27 -21 -23 -27 4 -7 3 -8 -5 -4 -6 4 -20 4 -32 1 -17 -6 -18 -9
-7 -23 12 -15 11 -16 -4 -3 -16 12 -16 16 -2 42 8 16 12 35 8 41 -4 7 -3 8 4
4 11 -6 14 0 11 20 0 4 4 10 9 13 6 3 12 15 14 26 1 11 9 26 16 34 7 7 11 19
8 26 -3 8 2 16 10 19 9 3 12 11 8 17 -4 7 -3 9 4 5 6 -3 14 -1 18 5 5 8 9 8
14 -1 4 -7 15 -10 24 -7z m-2584 -23 c0 -5 -2 -10 -4 -10 -3 0 -8 5 -11 10 -3
6 -1 10 4 10 6 0 11 -4 11 -10z m3155 -39 c-9 -8 -36 -10 -30 -2 2 4 11 8 20
8 8 0 13 -3 10 -6z m-395 -31 c30 0 81 -70 78 -105 -3 -26 -13 -35 -81 -72
-81 -43 -81 -43 -98 -43 -5 0 -7 -4 -4 -10 3 -5 0 -7 -8 -5 -7 3 -35 -4 -63
-17 -27 -12 -51 -22 -54 -23 -26 -4 -100 -31 -100 -37 0 -14 21 -20 34 -9 7 6
16 8 19 4 4 -3 7 -2 7 3 0 5 12 10 26 11 15 0 29 5 33 10 3 5 13 8 21 8 22 -1
60 17 55 26 -3 4 4 5 15 2 11 -3 26 -1 33 4 6 6 28 15 47 22 l35 11 -25 -20
c-14 -11 -29 -20 -33 -20 -5 0 -6 -4 -2 -9 3 -5 0 -13 -6 -17 -8 -4 -9 -3 -5
4 10 16 -5 15 -29 -1 -30 -20 -125 -57 -146 -57 -11 0 -19 -4 -19 -9 0 -5 -8
-8 -17 -6 -10 1 -25 -1 -33 -5 -8 -5 -40 -11 -70 -14 -50 -5 -53 -4 -27 7 15
7 25 16 22 19 -3 3 6 3 21 0 19 -3 25 -1 20 6 -5 8 -2 10 8 6 16 -6 23 11 8
20 -12 7 -124 -29 -115 -38 4 -4 -1 -4 -10 0 -16 6 -16 8 -2 30 9 14 13 30 9
36 -4 6 -3 8 4 4 6 -3 18 4 26 16 12 17 13 25 3 37 -10 14 -10 14 5 3 14 -11
21 -9 45 16 15 16 54 44 86 63 31 18 57 37 57 42 0 4 5 5 10 2 6 -3 10 -1 10
5 0 6 3 9 8 7 4 -3 40 19 81 49 41 29 78 51 83 48 4 -3 8 1 9 8 0 10 2 10 6 1
2 -7 13 -13 23 -13z m-2349 -131 c16 -11 34 -17 40 -13 7 4 9 3 6 -3 -4 -6 25
-25 66 -43 39 -18 100 -46 134 -62 35 -16 66 -29 70 -29 5 0 12 -7 16 -15 4
-8 12 -14 17 -14 13 0 53 -40 43 -41 -28 -5 -90 -3 -86 3 2 5 -4 8 -14 8 -44
1 -171 64 -244 121 -20 16 -40 25 -44 21 -5 -4 -5 -2 -1 5 3 6 2 14 -4 18 -13
8 -43 65 -34 65 3 0 19 -9 35 -21z m2533 3 c3 -5 -1 -9 -9 -9 -8 0 -12 4 -9 9
3 4 7 8 9 8 2 0 6 -4 9 -8z m-88 -27 c-1 -8 -5 -17 -8 -21 -5 -4 -4 16 1 34 3
9 9 -1 7 -13z m-2479 -10 c0 -8 -4 -12 -9 -9 -5 3 -6 10 -3 15 9 13 12 11 12
-6z m2438 -44 c3 -5 2 -12 -3 -15 -5 -3 -9 1 -9 9 0 17 3 19 12 6z m-525 -56
c-6 -8 -8 -20 -4 -26 4 -7 3 -9 -4 -5 -6 3 -19 -4 -29 -17 -26 -32 -87 -66
-133 -73 -22 -4 -38 -10 -35 -13 2 -4 -9 -5 -26 -3 -16 2 -37 -2 -46 -9 -11
-9 -14 -10 -9 -2 5 10 -7 11 -51 7 -32 -3 -55 -3 -53 -1 7 7 135 57 144 57 5
0 22 6 39 14 18 8 55 22 82 32 28 10 54 24 58 31 5 7 12 11 17 8 4 -3 19 -1
32 4 32 13 32 13 18 -4z m-1365 -79 c6 -2 18 -7 29 -11 10 -4 31 -8 47 -9 16
-1 29 -5 29 -10 0 -4 9 -6 20 -3 11 3 20 1 20 -5 0 -6 7 -8 15 -4 8 3 15 1 15
-4 0 -5 12 -11 28 -13 15 -3 -13 -4 -63 -2 -95 4 -104 5 -148 24 -16 6 -34 8
-40 4 -7 -3 -9 -3 -5 2 9 10 -17 35 -37 35 -9 0 -14 4 -11 9 5 8 34 4 101 -13z
m451 -51 c-1 -8 -5 -17 -8 -21 -5 -4 -4 16 1 34 3 9 9 -1 7 -13z m880 -11 c1
-9 0 -13 -4 -10 -3 4 -7 14 -8 22 -1 9 0 13 4 10 3 -4 7 -14 8 -22z m-1396 0
c0 -8 -19 -13 -24 -6 -3 5 1 9 9 9 8 0 15 -2 15 -3z m55 -3 c-9 -8 -36 -10
-30 -2 2 4 11 8 20 8 8 0 13 -3 10 -6z m320 0 c-9 -8 -36 -10 -30 -2 2 4 11 8
20 8 8 0 13 -3 10 -6z m979 0 c3 -5 -2 -15 -12 -22 -15 -12 -16 -12 -5 2 7 9
10 19 6 22 -3 4 -4 7 0 7 3 0 8 -4 11 -9z m126 5 c0 -3 -4 -8 -10 -11 -5 -3
-10 -1 -10 4 0 6 5 11 10 11 6 0 10 -2 10 -4z m-1225 -26 c3 -5 1 -10 -4 -10
-6 0 -11 5 -11 10 0 6 2 10 4 10 3 0 8 -4 11 -10z m610 1 c-9 -8 -36 -10 -30
-2 2 4 11 8 20 8 8 0 13 -3 10 -6z m50 -10 c3 -5 2 -12 -3 -15 -5 -3 -9 1 -9
9 0 17 3 19 12 6z m320 0 c3 -5 2 -12 -3 -15 -5 -3 -9 1 -9 9 0 17 3 19 12 6z
m-1080 -10 c3 -5 2 -12 -3 -15 -5 -3 -9 1 -9 9 0 17 3 19 12 6z m42 -6 c0 -8
-4 -12 -9 -9 -5 3 -6 10 -3 15 9 13 12 11 12 -6z m118 6 c-9 -8 -36 -10 -30
-2 2 4 11 8 20 8 8 0 13 -3 10 -6z m61 -3 c3 -4 -1 -5 -10 -4 -8 1 -18 5 -22
8 -3 4 1 5 10 4 8 -1 18 -5 22 -8z m264 8 c0 -3 -4 -8 -10 -11 -5 -3 -10 -1
-10 4 0 6 5 11 10 11 6 0 10 -2 10 -4z m55 -5 c-9 -8 -36 -10 -30 -2 2 4 11 8
20 8 8 0 13 -3 10 -6z m60 -1 c3 -5 1 -10 -4 -10 -6 0 -11 5 -11 10 0 6 2 10
4 10 3 0 8 -4 11 -10z m320 0 c3 -5 1 -10 -4 -10 -6 0 -11 5 -11 10 0 6 2 10
4 10 3 0 8 -4 11 -10z m-639 -42 c3 -4 -1 -5 -10 -4 -8 1 -18 5 -22 8 -3 4 1
5 10 4 8 -1 18 -5 22 -8z m139 3 c-9 -8 -36 -10 -30 -2 2 4 11 8 20 8 8 0 13
-3 10 -6z m267 -14 c6 -12 5 -17 -4 -18 -7 0 -32 -3 -55 -5 -41 -4 -43 -3 -43
22 0 24 2 25 46 21 30 -2 50 -9 56 -20z m54 11 c3 -4 -1 -5 -10 -4 -8 1 -18 5
-22 8 -3 4 1 5 10 4 8 -1 18 -5 22 -8z m119 3 c-9 -8 -36 -10 -30 -2 2 4 11 8
20 8 8 0 13 -3 10 -6z m145 3 c0 -8 -19 -13 -24 -6 -3 5 1 9 9 9 8 0 15 -2 15
-3z m56 -6 c3 -4 -1 -5 -10 -4 -8 1 -18 5 -22 8 -3 4 1 5 10 4 8 -1 18 -5 22
-8z m-701 -17 c3 -5 2 -12 -3 -15 -5 -3 -9 1 -9 9 0 17 3 19 12 6z m450 -1
c-3 -5 -12 -10 -18 -10 -7 0 -6 4 3 10 19 12 23 12 15 0z"/>
</g>
</svg>
